<?xml version="1.0" encoding="UTF-8" standalone="no"?>
<svg
   xmlns:dc="http://purl.org/dc/elements/1.1/"
   xmlns:cc="http://creativecommons.org/ns#"
   xmlns:rdf="http://www.w3.org/1999/02/22-rdf-syntax-ns#"
   xmlns:svg="http://www.w3.org/2000/svg"
   xmlns="http://www.w3.org/2000/svg"
   xmlns:sodipodi="http://sodipodi.sourceforge.net/DTD/sodipodi-0.dtd"
   xmlns:inkscape="http://www.inkscape.org/namespaces/inkscape"
   width="49.994827mm"
   height="49.329594mm"
   viewBox="0 0 49.994829 49.329594"
   version="1.1"
   id="svg2960"
   sodipodi:docname="hnc_organs_center.svg"
   inkscape:version="1.0.1 (3bc2e813f5, 2020-09-07)">
  <sodipodi:namedview
     pagecolor="#ffffff"
     bordercolor="#666666"
     borderopacity="1"
     objecttolerance="10"
     gridtolerance="10"
     guidetolerance="10"
     inkscape:pageopacity="0"
     inkscape:pageshadow="2"
     inkscape:window-width="1920"
     inkscape:window-height="1017"
     id="namedview29"
     showgrid="false"
     inkscape:zoom="3.7881139"
     inkscape:cx="68.488149"
     inkscape:cy="91.932506"
     inkscape:window-x="-8"
     inkscape:window-y="-8"
     inkscape:window-maximized="1"
     inkscape:current-layer="svg2960"
     inkscape:document-rotation="0" />
  <defs
     id="defs2954" />
  <metadata
     id="metadata2957">
    <rdf:RDF>
      <cc:Work
         rdf:about="">
        <dc:format>image/svg+xml</dc:format>
        <dc:type
           rdf:resource="http://purl.org/dc/dcmitype/StillImage" />
        <dc:title />
      </cc:Work>
    </rdf:RDF>
  </metadata>
  <path
     style="opacity:0.996087;fill:none;stroke:#000000;stroke-width:0.2;stroke-linecap:butt;stroke-linejoin:miter;stroke-miterlimit:4;stroke-dasharray:none;stroke-opacity:1"
     d="m 42.02203,30.679716 -0.235141,-2.090139 -2.719391,-3.551679 -5.998568,0.530599 -3.538961,-0.25895 0.345271,2.50317 0.0104,2.66237 2.589501,-0.43158 9.546898,0.63621"
     id="Genioglossus_M" />
  <path
     style="opacity:0.996087;fill:none;stroke:#000000;stroke-width:0.2;stroke-linecap:butt;stroke-linejoin:miter;stroke-miterlimit:4;stroke-dasharray:none;stroke-opacity:1"
     d="m 48.530688,37.162907 -4.042262,-0.36748 1.347412,-1.5924 2.714368,-1.0105 0.960422,0.88801 -0.97994,2.08237"
     id="Lower_Lip" />
  <path
     style="opacity:0.996087;fill:none;stroke:#000000;stroke-width:0.2;stroke-linecap:butt;stroke-linejoin:miter;stroke-miterlimit:4;stroke-dasharray:none;stroke-opacity:1"
     d="m 48.530688,37.162907 1.347419,2.08237 -0.980389,1.747979 -3.772702,-2.630939 -0.63659,-1.56689 z"
     id="Upper_Lip" />
  <path
     style="opacity:0.996087;fill:none;stroke:#000000;stroke-width:0.2;stroke-linecap:butt;stroke-linejoin:miter;stroke-miterlimit:4;stroke-dasharray:none;stroke-opacity:1"
     d="m 23.361817,36.855817 -2.90042,-3.2918 -4.77242,0.12415 -0.052,3.6956 1.61781,6.60753 2.27335,1.09647 1.73091,0.27005 0.67763,-1.81889 2.66854,-3.488709 z"
     id="SPC" />
  <path
     style="opacity:0.996087;fill:none;stroke:#000000;stroke-width:0.2;stroke-linecap:butt;stroke-linejoin:miter;stroke-miterlimit:4;stroke-dasharray:none;stroke-opacity:1"
     d="M 18.308797,7.918715 23.919357,5.933436 20.965266,5.2738 17.436422,5.496307 15.374038,7.314498 15.201397,8.177666 18.308797,7.918715"
     id="Cricoid_cartilage" />
  <path
     style="opacity:0.996087;fill:none;stroke:#000000;stroke-width:0.2;stroke-linecap:butt;stroke-linejoin:miter;stroke-miterlimit:4;stroke-dasharray:none;stroke-opacity:1"
     d="m 12.861642,6.704735 4.57478,-1.208429 v 0 L 15.914574,0.116285 5.8512165,2.139893 6.9921395,7.567896 Z"
     id="Esophagus" />
  <path
     style="opacity:0.996087;fill:none;stroke:#000000;stroke-width:0.2;stroke-linecap:butt;stroke-linejoin:miter;stroke-miterlimit:4;stroke-dasharray:none;stroke-opacity:1"
     d="m 42.708156,37.067567 -7.691918,0.13022 -5.40965,-2.17428 0.27904,-4.54842 2.589509,-0.43158 9.546891,0.63621 3.813839,4.52326 -1.34742,1.5924 z"
     id="Tongue" />
  <path
     id="Extended_Oral_Cavity"
     style="opacity:0.996087;fill:none;stroke:#000000;stroke-width:0.2;stroke-linecap:butt;stroke-linejoin:miter;stroke-miterlimit:4;stroke-dasharray:none;stroke-opacity:1"
     d="m 41.851812,41.673938 -13.966355,-0.415211 -3.28042,-1.208719 -1.24335,-3.194121 3.973699,-1.165963 2.271411,-0.666477 5.409491,2.17454 7.692029,-0.13022 1.78026,-0.27234 0.636651,1.56683 3.772389,2.63085 z" />
  <path
     style="opacity:0.996087;fill:none;stroke:#000000;stroke-width:0.2;stroke-linecap:butt;stroke-linejoin:miter;stroke-miterlimit:4;stroke-dasharray:none;stroke-opacity:1"
     d="m 48.013506,44.399586 -2.992857,1.364011 -6.537198,0.181883 -7.724829,-1.222116 -2.873334,-3.464718 13.966524,0.415291 7.045905,-0.680681 -0.884211,3.40633"
     id="Hard_Palate" />
  <path
     style="opacity:0.996087;fill:none;stroke:#000000;stroke-width:0.2;stroke-linecap:butt;stroke-linejoin:miter;stroke-miterlimit:4;stroke-dasharray:none;stroke-opacity:1"
     d="m 30.758622,44.723364 -4.054035,1.459021 -5.445539,-0.824569 0.67769,-1.81889 2.668541,-3.488709 3.28001,1.208429 z"
     id="Soft_Palate" />
  <path
     style="opacity:0.996087;fill:none;stroke:#000000;stroke-width:0.2;stroke-linecap:butt;stroke-linejoin:miter;stroke-miterlimit:4;stroke-dasharray:none;stroke-opacity:1"
     d="m 11.048848,47.742222 1.05028,-4.04314 -1.05028,-2.91635 -3.4478505,-0.787698 -5.61203,0.656418 -0.52306,3.84289 1.57333,3.904351 4.59947,0.82712 z"
     id="Brainstem" />
  <path
     style="opacity:0.996087;mix-blend-mode:normal;fill:none;stroke:#000000;stroke-width:0.2;stroke-linecap:butt;stroke-linejoin:miter;stroke-miterlimit:4;stroke-dasharray:none;stroke-opacity:1;image-rendering:auto"
     d="M 6.460426,15.99243 6.098221,8.760356 0.561598,8.063703 c -0.08385,-0.565129 0.194865,5.353397 0.880179,11.092734 0.396263,3.318614 2.04575,5.554183 2.302576,7.284964 l 5.588163,-1.15265 z"
     id="Spinal_Cord"
     sodipodi:nodetypes="cccsccc" />
  <path
     style="opacity:0.996087;fill:none;stroke:#000000;stroke-width:0.2;stroke-linecap:butt;stroke-linejoin:miter;stroke-miterlimit:4;stroke-dasharray:none;stroke-opacity:1"
     d="m 14.021627,27.324957 1.66735,6.36321 4.77242,-0.12415 2.144751,-7.414923 -1.686779,-0.75852 -4.147402,0.434413 z"
     id="MPC" />
  <path
     style="opacity:0.996087;fill:none;stroke:#000000;stroke-width:0.2;stroke-linecap:butt;stroke-linejoin:miter;stroke-miterlimit:4;stroke-dasharray:none;stroke-opacity:1"
     d="m 30.684027,17.486377 -3.522567,2.209743 -0.997863,-1.505735 -1.467379,-4.661099 5.200099,-2.344539 0.78771,6.30163"
     id="Thyroid_cartilage" />
  <path
     style="opacity:0.996087;fill:none;stroke:#000000;stroke-width:0.2;stroke-linecap:butt;stroke-linejoin:miter;stroke-miterlimit:4;stroke-dasharray:none;stroke-opacity:1"
     d="m 29.896317,11.184747 -1.40218,-4.30183 -5.35162,2.157911 1.553701,4.488458 5.200099,-2.344539"
     id="Glottic_Area" />
  <path
     style="opacity:0.996087;fill:none;stroke:#000000;stroke-width:0.2;stroke-linecap:butt;stroke-linejoin:miter;stroke-miterlimit:4;stroke-dasharray:none;stroke-opacity:1"
     d="m 23.919357,5.933436 -0.77684,3.107392 v 0 l 1.553701,4.488458 -5.932041,4.331712 -3.56278,-9.683332 3.1074,-0.258951 5.61056,-1.985279"
     id="Larynx" />
  <path
     style="opacity:0.996087;fill:none;stroke:#000000;stroke-width:0.2;stroke-linecap:butt;stroke-linejoin:miter;stroke-miterlimit:4;stroke-dasharray:none;stroke-opacity:1"
     d="m 18.764177,17.860998 0.39657,1.387999 1.4786,4.551939 3.10738,-0.0863 4.57478,-1.812639 -1.030231,-1.818317 -1.127679,-1.893295 -1.467379,-4.661081 -5.932041,4.331711"
     id="Supraglottic_Larynx" />
  <path
     style="opacity:0.996087;fill:none;stroke:#000000;stroke-width:0.2;stroke-linecap:butt;stroke-linejoin:miter;stroke-miterlimit:4;stroke-dasharray:none;stroke-opacity:1"
     d="m 20.919368,25.390574 1.68678,0.75852 3.125859,-1.053407 -1.985282,-1.381071 -3.107379,0.0863 0.280021,1.589658"
     id="Hyoid_bone" />
  <path
     style="opacity:0.996087;fill:none;stroke:#000000;stroke-width:0.2;stroke-linecap:butt;stroke-linejoin:miter;stroke-miterlimit:4;stroke-dasharray:none;stroke-opacity:1"
     d="m 15.201397,8.177666 0.97562,2.97858 -4.083,5.048852 -1.48019,-2.803622 0.18543,-4.87855 4.57478,-1.208429 z"
     id="Cricopharyngeal_Muscle" />
  <path
     style="opacity:0.996087;fill:none;stroke:#000000;stroke-width:0.2;stroke-linecap:butt;stroke-linejoin:miter;stroke-miterlimit:4;stroke-dasharray:none;stroke-opacity:1"
     d="m 33.068928,25.568497 -7.33692,-0.47281 -1.985281,-1.381071 4.57478,-1.81264 4.57355,-0.466304 5.278072,1.557488 0.894367,2.044738 -5.998568,0.530599"
     id="Mylogeniohyoid_M" />
  <path
     id="Mandible"
     style="opacity:0.996087;fill:none;stroke:#000000;stroke-width:0.2;stroke-linecap:butt;stroke-linejoin:miter;stroke-miterlimit:4;stroke-dasharray:none;stroke-opacity:1"
     d="m 45.836015,35.202668 -3.81373,-4.52324 -0.235109,-2.089793 -2.71968,-3.551737 -0.894367,-2.044738 6.952348,-0.780913 2.625672,2.363162 0.918792,3.938778 -1.181312,2.363163 1.061429,3.315044 z" />
  <path
     style="opacity:0.996087;fill:none;stroke:#000000;stroke-width:0.2;stroke-linecap:butt;stroke-linejoin:miter;stroke-miterlimit:4;stroke-dasharray:none;stroke-opacity:1"
     d="m 16.177017,11.156245 -4.083,5.048853 1.92761,11.119859 2.75034,-1.499971 4.147402,-0.434412 -0.280022,-1.589657 -1.4786,-4.55192 -0.39657,-1.387999 -2.58716,-6.704753"
     id="IPC" />
  <path
     style="opacity:0.996087;fill:none;stroke:#000000;stroke-width:0.2;stroke-linecap:butt;stroke-linejoin:miter;stroke-miterlimit:4;stroke-dasharray:none;stroke-opacity:1"
     d="m 23.361818,36.855817 6.244771,-1.83231 0.279039,-4.54842 -0.0104,-2.662369 -0.345281,-2.50317 -3.797948,-0.21386 -3.125851,1.053407 -2.144763,7.414922 2.90042,3.2918"
     id="Masseter_M" />
</svg>
