<?xml version="1.0" encoding="UTF-8" standalone="no"?>
<svg
   xmlns:dc="http://purl.org/dc/elements/1.1/"
   xmlns:cc="http://creativecommons.org/ns#"
   xmlns:rdf="http://www.w3.org/1999/02/22-rdf-syntax-ns#"
   xmlns:svg="http://www.w3.org/2000/svg"
   xmlns="http://www.w3.org/2000/svg"
   xmlns:sodipodi="http://sodipodi.sourceforge.net/DTD/sodipodi-0.dtd"
   xmlns:inkscape="http://www.inkscape.org/namespaces/inkscape"
   width="38.287655mm"
   height="50.878437mm"
   viewBox="0 0 38.287655 50.878437"
   version="1.1"
   id="svg5143"
   sodipodi:docname="hnc_organs_left.svg"
   inkscape:version="1.0.1 (3bc2e813f5, 2020-09-07)">
  <sodipodi:namedview
     pagecolor="#ffffff"
     bordercolor="#666666"
     borderopacity="1"
     objecttolerance="10"
     gridtolerance="10"
     guidetolerance="10"
     inkscape:pageopacity="0"
     inkscape:pageshadow="2"
     inkscape:window-width="1920"
     inkscape:window-height="1017"
     id="namedview26"
     showgrid="false"
     inkscape:zoom="2.7804383"
     inkscape:cx="69.299868"
     inkscape:cy="94.415037"
     inkscape:window-x="-8"
     inkscape:window-y="-8"
     inkscape:window-maximized="1"
     inkscape:current-layer="svg5143"
     inkscape:document-rotation="0" />
  <defs
     id="defs5137" />
  <metadata
     id="metadata5140">
    <rdf:RDF>
      <cc:Work
         rdf:about="">
        <dc:format>image/svg+xml</dc:format>
        <dc:type
           rdf:resource="http://purl.org/dc/dcmitype/StillImage" />
        <dc:title />
      </cc:Work>
    </rdf:RDF>
  </metadata>
  <path
     style="fill:none;stroke:#000000;stroke-width:0.2;stroke-linecap:butt;stroke-linejoin:miter;stroke-miterlimit:4;stroke-dasharray:none;stroke-opacity:1"
     d="m 28.205618,31.328738 -4.03395,-3.63846 -2.76839,0.47458 -0.71189,2.6893 1.97743,1.97742 2.8475,1.74014 v 0 l 1.547394,-2.105921 z"
     id="Lt_Submandibular_Gland"
     sodipodi:nodetypes="ccccccccc" />
  <path
     style="fill:none;stroke:#000000;stroke-width:0.2;stroke-linecap:butt;stroke-linejoin:miter;stroke-miterlimit:4;stroke-dasharray:none;stroke-opacity:1"
     d="m 31.448588,34.809008 -3.24297,-3.48027 -0.645594,-3.025802 1.320873,-1.499186 1.918422,1.598398 2.222069,2.878585 0.750274,2.477608 -0.424743,1.604337 z"
     id="Lt_Ant_Digastric_M" />
  <path
     style="fill:none;stroke:#000000;stroke-width:0.2;stroke-linecap:butt;stroke-linejoin:miter;stroke-miterlimit:4;stroke-dasharray:none;stroke-opacity:1"
     d="m 29.866648,23.893618 -0.727959,-2.842643 -3.429323,0.839011 v 0 l -0.564438,1.862522 4.72172,0.14111"
     id="Thyroid_cartilage"
     sodipodi:nodetypes="cccccc" />
  <circle
     id="path2568-4-1"
     style="fill:#000000;stroke:#000000;stroke-width:0.2;stroke-miterlimit:4;stroke-dasharray:none"
     cx="14.004992"
     cy="-37.580109"
     r="0.021290546"
     transform="scale(1,-1)" />
  <path
     style="fill:none;stroke:#000000;stroke-width:0.2;stroke-linecap:butt;stroke-linejoin:miter;stroke-miterlimit:4;stroke-dasharray:none;stroke-opacity:1"
     d="m 13.087143,36.222398 1.9593,-1.38245 1.803485,-1.95639 -1.794385,-1.27051 -3.95508,2.42685 z"
     id="Lt_Parotid_Gland" />
  <path
     style="fill:none;stroke:#000000;stroke-width:0.2;stroke-linecap:butt;stroke-linejoin:miter;stroke-miterlimit:4;stroke-dasharray:none;stroke-opacity:1"
     d="m 15.350988,40.592628 -2.263845,-4.37023 1.9593,-1.38245 1.803485,-1.95639 1.70585,-1.13615 2.13561,-0.89325 1.97743,1.97742 0.43776,3.65892 -3.45988,1.97828 z"
     id="Lt_Masseter_M" />
  <path
     style="fill:none;stroke:#000000;stroke-width:0.2;stroke-linecap:butt;stroke-linejoin:miter;stroke-miterlimit:4;stroke-dasharray:none;stroke-opacity:1"
     d="m 15.350988,40.592628 0.95063,3.045177 2.97991,1.648603 3.21431,-1.84864 -1.97066,-2.23597 -0.87848,-2.73302 z"
     id="Lt_Lateral_Pterygoid_M" />
  <path
     style="fill:none;stroke:#000000;stroke-width:0.2;stroke-linecap:butt;stroke-linejoin:miter;stroke-miterlimit:4;stroke-dasharray:none;stroke-opacity:1"
     d="m 20.525178,41.201798 1.97066,2.23597 2.32409,-5.16421 -1.71335,-1.78306 -3.45988,1.97828 z"
     id="Lt_Medial_Pterygoid_M" />
  <path
     style="fill:none;stroke:#000000;stroke-width:0.2;stroke-linecap:butt;stroke-linejoin:miter;stroke-miterlimit:4;stroke-dasharray:none;stroke-opacity:1"
     d="m 9.5387328,32.673388 4.0689842,-6.536253 4.631671,-7.622107 2.600402,-7.698471 1.006738,-3.2701595 -2.9446,-3.45991 -6.478115,0.58892 -0.29447,7.4351205 -1.9876,7.58234 -3.6878002,6.65276 z"
     id="Lt_Sternocleidomastoid_M"
     sodipodi:nodetypes="ccccccccccc" />
  <path
     style="fill:none;stroke:#000000;stroke-width:0.2;stroke-linecap:butt;stroke-linejoin:miter;stroke-miterlimit:4;stroke-dasharray:none;stroke-opacity:1"
     d="m 7.0552828,6.4533375 5.3685302,-1.77793 -1.56184,-4.56659996 -7.4181802,0.87848 z"
     id="Lt_Brachial_Plexus" />
  <path
     style="fill:none;stroke:#000000;stroke-width:0.2;stroke-linecap:butt;stroke-linejoin:miter;stroke-miterlimit:4;stroke-dasharray:none;stroke-opacity:1"
     d="m 24.819928,38.273558 10.846291,7.5541 0.82824,-3.76957 1.481,-1.1647 0.20797,-2.85966 -3.17548,-1.88008 -1.66103,-0.79097 -1.898331,-0.55367 -5.93227,-0.23729 -2.8475,-1.74014 0.43776,3.65892 1.71335,1.78306"
     id="Mandible" />
  <path
     style="fill:none;stroke:#000000;stroke-width:0.2;stroke-linecap:butt;stroke-linejoin:miter;stroke-miterlimit:4;stroke-dasharray:none;stroke-opacity:1"
     d="m 34.287878,50.767388 0.15199,-3.32278 1.409771,0.29693 0.0976,1.65934 -1.65934,1.36651"
     id="Upper_Lip" />
  <path
     style="fill:none;stroke:#000000;stroke-width:0.2;stroke-linecap:butt;stroke-linejoin:miter;stroke-miterlimit:4;stroke-dasharray:none;stroke-opacity:1"
     d="m 36.516657,46.606832 -0.850438,-0.779174 -1.226351,1.61695 1.409771,0.29693 z"
     id="Lower_Lip" />
  <path
     style="fill:none;stroke:#000000;stroke-width:0.2;stroke-linecap:butt;stroke-linejoin:miter;stroke-miterlimit:4;stroke-dasharray:none;stroke-opacity:1"
     d="m 34.287878,50.767388 -8.97438,-0.98664 -6.03197,-4.49434 3.21431,-1.84864 2.32409,-5.16421 10.846291,7.5541 -1.226351,1.61695 z"
     id="Extended_Oral_Cavity" />
  <path
     style="fill:none;stroke:#000000;stroke-width:0.2;stroke-linecap:butt;stroke-linejoin:miter;stroke-miterlimit:4;stroke-dasharray:none;stroke-opacity:1"
     d="m 29.866648,23.893618 1.57628,1.16245 -7.13874,-0.1939 0.84074,-1.10966 1.59699,-0.13846 3.12473,0.27957"
     id="Hyoid_bone" />
  <path
     style="fill:none;stroke:#000000;stroke-width:0.2;stroke-linecap:butt;stroke-linejoin:miter;stroke-miterlimit:4;stroke-dasharray:none;stroke-opacity:1"
     d="m 25.420633,11.759145 -3.026035,-2.1387775 -0.54807,-2.07397 3.71754,-1.02826 3.95485,0.94916 0.0306,3.1987705 -4.128885,1.093077"
     id="Esophagus" />
  <path
     style="fill:none;stroke:#000000;stroke-width:0.2;stroke-linecap:butt;stroke-linejoin:miter;stroke-miterlimit:4;stroke-dasharray:none;stroke-opacity:1"
     d="m 2.7905728,33.579878 2.68928,-2.452 -2.45198,-3.63846 -2.84750005,0.94916 -0.0791,3.16388 z"
     id="Brainstem" />
  <path
     style="fill:none;stroke:#000000;stroke-width:0.2;stroke-linecap:butt;stroke-linejoin:miter;stroke-miterlimit:4;stroke-dasharray:none;stroke-opacity:1"
     d="m 4.4198528,20.996938 3.51203,1.50937 1.81921,-5.77408 1.3446502,-7.5933105 -0.31637,-3.16388 -3.7241002,0.4783 -1.85456,12.1033905 z"
     id="Spinal_Cord" />
  <path
     style="fill:none;stroke:#000000;stroke-width:0.264583px;stroke-linecap:butt;stroke-linejoin:miter;stroke-opacity:1"
     d="m 18.746295,24.804908 v 0 l -0.506907,-6.289883 4.97631,0.953572 3.15978,0.613371 -1.23055,3.67054 -0.84074,1.10966 z"
     id="Supraglottic_Larynx"
     sodipodi:nodetypes="cccccccc" />
  <path
     style="fill:none;stroke:#000000;stroke-width:0.264583px;stroke-linecap:butt;stroke-linejoin:miter;stroke-opacity:1"
     d="m 18.239388,18.515025 2.600402,-7.698468 4.580843,0.942588 -1.155125,2.197657 -0.75874,1.243366 -0.29106,4.268431 z"
     id="Larynx"
     sodipodi:nodetypes="ccccccc" />
  <path
     style="fill:none;stroke:#000000;stroke-width:0.264583px;stroke-linecap:butt;stroke-linejoin:miter;stroke-opacity:1"
     d="m 21.403278,28.164858 -2.8473,-0.790659 -3.500435,4.238849 1.794385,1.27051 1.70585,-1.13615 2.13561,-0.89325 0.71189,-2.6893"
     id="MPC" />
  <path
     style="fill:none;stroke:#000000;stroke-width:0.264583px;stroke-linecap:butt;stroke-linejoin:miter;stroke-opacity:1"
     d="m 25.516318,34.571718 5.932269,0.23729 -3.242968,-3.48027 -1.141908,1.137059 -1.547393,2.105921"
     id="Mylogeniohyoid_M" />
  <path
     style="fill:none;stroke:#000000;stroke-width:0.2;stroke-linecap:butt;stroke-linejoin:miter;stroke-miterlimit:4;stroke-dasharray:none;stroke-opacity:1"
     d="m 29.233848,19.147798 -0.547979,-3.17165 -1.565595,-0.306487 -3.613506,-0.469493 -0.29106,2.40808 v 1.86035 l 3.15977,0.61337 2.85837,-0.93417"
     id="Lt_thyroid_lobe"
     sodipodi:nodetypes="cccccccc" />
  <path
     style="fill:none;stroke:#000000;stroke-width:0.264583px;stroke-linecap:butt;stroke-linejoin:miter;stroke-opacity:1"
     d="m 18.746295,24.804908 -0.190317,2.569291 -3.500435,4.238849 -1.447826,-5.475912 4.631671,-7.62211 z"
     id="IPC" />
  <path
     style="fill:none;stroke:#000000;stroke-width:0.264583px;stroke-linecap:butt;stroke-linejoin:miter;stroke-opacity:1"
     d="m 29.233848,19.147798 -0.09516,1.903177 -3.429322,0.839011 0.666112,-1.808018 z"
     id="Glottic_Area" />
</svg>
