<?xml version="1.0" encoding="UTF-8" standalone="no"?>
<svg
   xmlns:dc="http://purl.org/dc/elements/1.1/"
   xmlns:cc="http://creativecommons.org/ns#"
   xmlns:rdf="http://www.w3.org/1999/02/22-rdf-syntax-ns#"
   xmlns:svg="http://www.w3.org/2000/svg"
   xmlns="http://www.w3.org/2000/svg"
   xmlns:sodipodi="http://sodipodi.sourceforge.net/DTD/sodipodi-0.dtd"
   xmlns:inkscape="http://www.inkscape.org/namespaces/inkscape"
   width="210mm"
   height="297mm"
   viewBox="0 0 210 297"
   version="1.1"
   id="svg859"
   sodipodi:docname="hnc_organs_both.svg"
   inkscape:version="1.0.1 (3bc2e813f5, 2020-09-07)">
  <sodipodi:namedview
     pagecolor="#ffffff"
     bordercolor="#666666"
     borderopacity="1"
     objecttolerance="10"
     gridtolerance="10"
     guidetolerance="10"
     inkscape:pageopacity="0"
     inkscape:pageshadow="2"
     inkscape:window-width="1920"
     inkscape:window-height="1017"
     id="namedview54"
     showgrid="false"
     inkscape:zoom="3.5175344"
     inkscape:cx="65.724357"
     inkscape:cy="32.39724"
     inkscape:window-x="-8"
     inkscape:window-y="-8"
     inkscape:window-maximized="1"
     inkscape:current-layer="svg859"
     inkscape:document-rotation="0" />
  <defs
     id="defs853">
    <inkscape:path-effect
       effect="offset"
       id="path-effect1404"
       is_visible="true"
       lpeversion="1"
       linejoin_type="miter"
       unit="mm"
       offset="-0.8"
       miter_limit="2.5"
       attempt_force_join="false"
       update_on_knot_move="true" />
    <inkscape:path-effect
       effect="offset"
       id="path-effect1402"
       is_visible="true"
       lpeversion="1"
       linejoin_type="miter"
       unit="mm"
       offset="-0.4"
       miter_limit="2.5"
       attempt_force_join="false"
       update_on_knot_move="true" />
    <inkscape:path-effect
       effect="offset"
       id="path-effect1379"
       is_visible="true"
       lpeversion="1"
       linejoin_type="miter"
       unit="mm"
       offset="-0.8"
       miter_limit="2.5"
       attempt_force_join="false"
       update_on_knot_move="true" />
    <inkscape:path-effect
       effect="offset"
       id="path-effect1377"
       is_visible="true"
       lpeversion="1"
       linejoin_type="miter"
       unit="mm"
       offset="-0.4"
       miter_limit="2.5"
       attempt_force_join="false"
       update_on_knot_move="true" />
    <inkscape:path-effect
       effect="offset"
       id="path-effect109"
       is_visible="true"
       lpeversion="1"
       linejoin_type="miter"
       unit="mm"
       offset="-0.3"
       miter_limit="2.5"
       attempt_force_join="false"
       update_on_knot_move="true" />
    <inkscape:path-effect
       effect="offset"
       id="path-effect105"
       is_visible="true"
       lpeversion="1"
       linejoin_type="miter"
       unit="mm"
       offset="-0.3"
       miter_limit="2.5"
       attempt_force_join="false"
       update_on_knot_move="true" />
    <inkscape:path-effect
       effect="clone_original"
       id="path-effect88"
       is_visible="true"
       lpeversion="1"
       linkeditem=""
       method="d"
       attributes=""
       css_properties=""
       allow_transforms="true" />
    <inkscape:path-effect
       effect="offset"
       id="path-effect86"
       is_visible="true"
       lpeversion="1"
       linejoin_type="miter"
       unit="mm"
       offset="0"
       miter_limit="2.5"
       attempt_force_join="false"
       update_on_knot_move="true" />
  </defs>
  <metadata
     id="metadata856">
    <rdf:RDF>
      <cc:Work
         rdf:about="">
        <dc:format>image/svg+xml</dc:format>
        <dc:type
           rdf:resource="http://purl.org/dc/dcmitype/StillImage" />
        <dc:title />
      </cc:Work>
    </rdf:RDF>
  </metadata>
  <path
     style="opacity:0.996087;fill:none;stroke:#000000;stroke-width:0.2;stroke-linecap:butt;stroke-linejoin:miter;stroke-miterlimit:4;stroke-dasharray:none;stroke-opacity:1"
     d="m 38.380607,6.0148601 -0.235141,-2.090139 -2.71939,-3.55167777 -5.99857,0.530599 -3.538961,-0.25895 0.345271,2.50316977 0.0104,2.66237 2.589501,-0.431581 9.5469,0.636212"
     id="Genioglossus_M" />
  <path
     style="opacity:0.996087;fill:none;stroke:#000000;stroke-width:0.2;stroke-linecap:butt;stroke-linejoin:miter;stroke-miterlimit:4;stroke-dasharray:none;stroke-opacity:1"
     d="m 44.889267,12.498052 -4.042262,-0.36748 1.347412,-1.5924 2.714368,-1.0105 0.960422,0.888011 -0.97994,2.082369"
     id="Lower_Lip" />
  <path
     style="opacity:0.996087;fill:none;stroke:#000000;stroke-width:0.2;stroke-linecap:butt;stroke-linejoin:miter;stroke-miterlimit:4;stroke-dasharray:none;stroke-opacity:1"
     d="m 44.889267,12.498052 1.347417,2.082371 -0.980387,1.747978 -3.772705,-2.630938 -0.636587,-1.566891 z"
     id="Upper_Lip" />
  <path
     style="opacity:0.996087;fill:none;stroke:#000000;stroke-width:0.2;stroke-linecap:butt;stroke-linejoin:miter;stroke-miterlimit:4;stroke-dasharray:none;stroke-opacity:1"
     d="m 19.720394,12.190963 -2.90042,-3.2918 -4.77242,0.12415 -0.052,3.6956 1.61781,6.607529 2.27335,1.096471 1.73091,0.270049 0.67763,-1.818889 2.66854,-3.488711 z"
     id="SPC" />
  <path
     style="opacity:0.996087;fill:none;stroke:#000000;stroke-width:0.2;stroke-linecap:butt;stroke-linejoin:miter;stroke-miterlimit:4;stroke-dasharray:none;stroke-opacity:1"
     d="m 14.667374,-16.74614 5.61056,-1.985279 -2.954091,-0.659636 -3.528844,0.222507 -2.062384,1.818191 -0.172641,0.863168 3.1074,-0.258951"
     id="Cricoid_cartilage" />
  <path
     style="opacity:0.996087;fill:none;stroke:#000000;stroke-width:0.2;stroke-linecap:butt;stroke-linejoin:miter;stroke-miterlimit:4;stroke-dasharray:none;stroke-opacity:1"
     d="m 9.2202191,-17.96012 4.5747799,-1.208429 v 0 l -1.521848,-5.380021 -10.0633579,2.023608 1.140923,5.428003 z"
     id="Esophagus" />
  <path
     style="opacity:0.996087;fill:none;stroke:#000000;stroke-width:0.2;stroke-linecap:butt;stroke-linejoin:miter;stroke-miterlimit:4;stroke-dasharray:none;stroke-opacity:1"
     d="m 39.066893,12.402913 -7.691919,0.13022 -5.40965,-2.17428 0.27904,-4.5484195 2.589509,-0.431581 9.546892,0.636212 3.813839,4.5232585 -1.347423,1.5924 z"
     id="Tongue" />
  <path
     id="Extended_Oral_Cavity"
     style="opacity:0.996087;fill:none;stroke:#000000;stroke-width:0.2;stroke-linecap:butt;stroke-linejoin:miter;stroke-miterlimit:4;stroke-dasharray:none;stroke-opacity:1"
     d="m 38.21039,17.009084 -13.966354,-0.415211 -3.280422,-1.20872 -1.24335,-3.194121 3.9737,-1.165963 2.271411,-0.666478 5.409491,2.174542 7.692027,-0.13022 1.780263,-0.272341 0.636651,1.566831 3.772386,2.63085 z" />
  <path
     style="opacity:0.996087;fill:none;stroke:#000000;stroke-width:0.2;stroke-linecap:butt;stroke-linejoin:miter;stroke-miterlimit:4;stroke-dasharray:none;stroke-opacity:1"
     d="m 44.372083,19.734731 -2.992856,1.364012 -6.537198,0.181883 -7.72483,-1.222116 -2.873333,-3.464719 13.966524,0.415293 7.045904,-0.680683 -0.884211,3.40633"
     id="Hard_Palate" />
  <path
     style="opacity:0.996087;fill:none;stroke:#000000;stroke-width:0.2;stroke-linecap:butt;stroke-linejoin:miter;stroke-miterlimit:4;stroke-dasharray:none;stroke-opacity:1"
     d="m 27.117199,20.05851 -4.054035,1.459021 -5.445539,-0.824569 0.67769,-1.818891 2.668541,-3.488709 3.28001,1.208429 z"
     id="Soft_Palate" />
  <path
     style="opacity:0.996087;fill:none;stroke:#000000;stroke-width:0.2;stroke-linecap:butt;stroke-linejoin:miter;stroke-miterlimit:4;stroke-dasharray:none;stroke-opacity:1"
     d="m 7.4074251,23.077369 1.05028,-4.043141 -1.05028,-2.916351 -3.447851,-0.787699 -5.61203,0.656418 -0.52306,3.842891 1.57333003,3.904353 4.59946997,0.827119 z"
     id="Brainstem" />
  <path
     style="opacity:0.996087;mix-blend-mode:normal;fill:none;stroke:#000000;stroke-width:0.2;stroke-linecap:butt;stroke-linejoin:miter;stroke-miterlimit:4;stroke-dasharray:none;stroke-opacity:1;image-rendering:auto"
     d="m 2.8190031,-8.6724247 -0.362205,-7.2320743 -5.536623,-0.696653 c -0.08385,-0.565129 0.194865,5.353398 0.880179,11.0927343 0.396263,3.318614 2.04575003,5.55418303 2.30257603,7.2849638 L 5.6910931,0.62389633 Z"
     id="Spinal_Cord" />
  <path
     style="opacity:0.996087;fill:none;stroke:#000000;stroke-width:0.2;stroke-linecap:butt;stroke-linejoin:miter;stroke-miterlimit:4;stroke-dasharray:none;stroke-opacity:1"
     d="m 10.380204,2.6601031 1.66735,6.3632099 4.77242,-0.12415 2.144751,-7.4149239 -1.686779,-0.75851977 -4.147402,0.43441277 z"
     id="MPC" />
  <path
     style="opacity:0.996087;fill:none;stroke:#000000;stroke-width:0.2;stroke-linecap:butt;stroke-linejoin:miter;stroke-miterlimit:4;stroke-dasharray:none;stroke-opacity:1"
     d="m 27.042605,-7.1784777 -3.522567,2.209743 -0.997864,-1.505735 -1.467379,-4.6610983 5.2001,-2.344539 0.78771,6.3016293"
     id="Thyroid_cartilage" />
  <path
     style="opacity:0.996087;fill:none;stroke:#000000;stroke-width:0.2;stroke-linecap:butt;stroke-linejoin:miter;stroke-miterlimit:4;stroke-dasharray:none;stroke-opacity:1"
     d="m 26.254895,-13.480107 -1.40218,-4.301831 -5.351621,2.157911 1.553701,4.488459 5.2001,-2.344539"
     id="Glottic_Area" />
  <path
     style="opacity:0.996087;fill:none;stroke:#000000;stroke-width:0.2;stroke-linecap:butt;stroke-linejoin:miter;stroke-miterlimit:4;stroke-dasharray:none;stroke-opacity:1"
     d="m 20.277934,-18.731419 -0.77684,3.107392 v 0 l 1.553701,4.488459 -5.932041,4.3317113 -3.56278,-9.6833323 3.1074,-0.258951 5.61056,-1.985279"
     id="Larynx" />
  <path
     style="opacity:0.996087;fill:none;stroke:#000000;stroke-width:0.2;stroke-linecap:butt;stroke-linejoin:miter;stroke-miterlimit:4;stroke-dasharray:none;stroke-opacity:1"
     d="m 15.122754,-6.8038567 0.39657,1.387999 1.4786,4.55193903 3.10738,-0.0863 4.574781,-1.81263903 -1.030232,-1.818317 -1.127679,-1.893295 -1.467379,-4.6610803 -5.932041,4.3317103"
     id="Supraglottic_Larynx" />
  <path
     style="opacity:0.996087;fill:none;stroke:#000000;stroke-width:0.2;stroke-linecap:butt;stroke-linejoin:miter;stroke-miterlimit:4;stroke-dasharray:none;stroke-opacity:1"
     d="m 17.277945,0.72571933 1.68678,0.75851977 3.125859,-1.05340677 -1.985282,-1.381071 -3.107379,0.0863 0.280021,1.589658"
     id="Hyoid_bone" />
  <path
     style="opacity:0.996087;fill:none;stroke:#000000;stroke-width:0.2;stroke-linecap:butt;stroke-linejoin:miter;stroke-miterlimit:4;stroke-dasharray:none;stroke-opacity:1"
     d="m 11.559974,-16.487189 0.97562,2.978581 -4.0829999,5.0488513 -1.48019,-2.8036213 0.18543,-4.878551 4.5747799,-1.208429 z"
     id="Cricopharyngeal_Muscle" />
  <path
     style="opacity:0.996087;fill:none;stroke:#000000;stroke-width:0.2;stroke-linecap:butt;stroke-linejoin:miter;stroke-miterlimit:4;stroke-dasharray:none;stroke-opacity:1"
     d="m 29.427506,0.90364233 -7.336921,-0.47281 -1.985281,-1.381071 4.574781,-1.81264003 4.57355,-0.466304 5.278073,1.557488 0.894365,2.04473803 -5.998567,0.530599"
     id="Mylogeniohyoid_M" />
  <path
     id="Mandible"
     style="opacity:0.996087;fill:none;stroke:#000000;stroke-width:0.2;stroke-linecap:butt;stroke-linejoin:miter;stroke-miterlimit:4;stroke-dasharray:none;stroke-opacity:1"
     d="M 42.194594,10.537815 38.380863,6.0145721 38.145754,3.9247791 35.426073,0.37304333 34.531708,-1.6716947 l 6.952347,-0.780913 2.625672,2.36316203 0.918792,3.93877877 -1.181311,2.3631629 1.061429,3.315044 z" />
  <path
     style="opacity:0.996087;fill:none;stroke:#000000;stroke-width:0.2;stroke-linecap:butt;stroke-linejoin:miter;stroke-miterlimit:4;stroke-dasharray:none;stroke-opacity:1"
     d="m 12.535594,-13.508609 -4.0829999,5.0488523 1.9276099,11.1198598 2.75034,-1.499972 4.147402,-0.43441177 -0.280022,-1.589657 -1.4786,-4.55192003 -0.39657,-1.387999 -2.58716,-6.7047523"
     id="IPC" />
  <path
     style="opacity:0.996087;fill:none;stroke:#000000;stroke-width:0.2;stroke-linecap:butt;stroke-linejoin:miter;stroke-miterlimit:4;stroke-dasharray:none;stroke-opacity:1"
     d="m 19.720395,12.190963 6.244771,-1.832311 0.27904,-4.5484199 -0.0104,-2.66237 -0.345281,-2.50316877 -3.797948,-0.21386 -3.125851,1.05340677 -2.144763,7.4149229 2.90042,3.2918"
     id="Masseter_M" />
  <path
     style="fill:none;stroke:#000000;stroke-width:0.2;stroke-linecap:butt;stroke-linejoin:miter;stroke-miterlimit:4;stroke-dasharray:none;stroke-opacity:1"
     d="m -15.50196,4.4045017 -4.033951,-3.63845997 -2.76839,0.47457997 -0.71189,2.689299 1.97743,1.9774219 2.8475,1.740138 v 0 l 1.547394,-2.105919 z"
     id="Lt_Submandibular_Gland" />
  <path
     style="fill:none;stroke:#000000;stroke-width:0.2;stroke-linecap:butt;stroke-linejoin:miter;stroke-miterlimit:4;stroke-dasharray:none;stroke-opacity:1"
     d="m -12.258991,7.8847726 -3.242969,-3.4802709 -0.645597,-3.025802 1.320874,-1.49918391 1.918423,1.59839491 2.222068,2.878587 0.7502737,2.4776059 -0.4247427,1.604338 z"
     id="Lt_Ant_Digastric_M" />
  <path
     style="fill:none;stroke:#000000;stroke-width:0.2;stroke-linecap:butt;stroke-linejoin:miter;stroke-miterlimit:4;stroke-dasharray:none;stroke-opacity:1"
     d="m -13.840932,-3.0306178 -0.727959,-2.842642 -3.429322,0.839011 v 0 l -0.564438,1.862522 4.721719,0.141109"
     id="Thyroid_cartilage_side" />
  <circle
     id="path2568-4-1"
     style="fill:#000000;stroke:#000000;stroke-width:0.2;stroke-miterlimit:4;stroke-dasharray:none"
     cx="-29.702587"
     cy="-10.655875"
     r="0.021290544"
     transform="scale(1,-1)" />
  <path
     style="fill:none;stroke:#000000;stroke-width:0.2;stroke-linecap:butt;stroke-linejoin:miter;stroke-miterlimit:4;stroke-dasharray:none;stroke-opacity:1"
     d="m -30.620436,9.29816 1.9593,-1.3824474 1.803485,-1.95639 -1.794385,-1.2705109 -3.95508,2.4268509 z"
     id="Lt_Parotid_Gland" />
  <path
     style="fill:none;stroke:#000000;stroke-width:0.2;stroke-linecap:butt;stroke-linejoin:miter;stroke-miterlimit:4;stroke-dasharray:none;stroke-opacity:1"
     d="m -28.356591,13.668391 -2.263845,-4.370231 1.9593,-1.3824474 1.803485,-1.95639 1.70585,-1.1361499 2.13561,-0.893252 1.97743,1.9774219 0.43776,3.6589191 -3.45988,1.9782793 z"
     id="Lt_Masseter_M" />
  <path
     style="fill:none;stroke:#000000;stroke-width:0.2;stroke-linecap:butt;stroke-linejoin:miter;stroke-miterlimit:4;stroke-dasharray:none;stroke-opacity:1"
     d="m -28.356591,13.668391 0.95063,3.045177 2.97991,1.648603 3.21431,-1.848641 -1.97066,-2.23597 -0.87848,-2.733019 z"
     id="Lt_Lateral_Pterygoid_M" />
  <path
     style="fill:none;stroke:#000000;stroke-width:0.2;stroke-linecap:butt;stroke-linejoin:miter;stroke-miterlimit:4;stroke-dasharray:none;stroke-opacity:1"
     d="m -23.182401,14.27756 1.97066,2.23597 2.32409,-5.164209 -1.71335,-1.7830593 -3.45988,1.9782793 z"
     id="Lt_Medial_Pterygoid_M" />
  <path
     style="fill:none;stroke:#000000;stroke-width:0.2;stroke-linecap:butt;stroke-linejoin:miter;stroke-miterlimit:4;stroke-dasharray:none;stroke-opacity:1"
     d="m -34.168845,5.7491506 4.068983,-6.53625133 4.631671,-7.62210607 2.600402,-7.6984712 1.006738,-3.270159 -2.9446,-3.45991 -6.478115,0.58892 -0.29447,7.43512 -1.9876,7.5823402 -3.687799,6.65275907 z"
     id="Lt_Sternocleidomastoid_M" />
  <path
     style="fill:none;stroke:#000000;stroke-width:0.2;stroke-linecap:butt;stroke-linejoin:miter;stroke-miterlimit:4;stroke-dasharray:none;stroke-opacity:1"
     d="m -18.887651,11.349321 10.8462888,7.5541 0.8282405,-3.769571 1.481,-1.164699 0.20797,-2.859659 -3.1754802,-1.880081 -1.6610291,-0.7909694 -1.89833,-0.553669 -5.93227,-0.237292 -2.8475,-1.740138 0.43776,3.6589191 1.71335,1.7830593"
     id="Mandible_side" />
  <path
     style="fill:none;stroke:#000000;stroke-width:0.2;stroke-linecap:butt;stroke-linejoin:miter;stroke-miterlimit:4;stroke-dasharray:none;stroke-opacity:1"
     d="m -9.4197036,23.84315 0.15199,-3.322781 1.4097711,0.296932 0.0976,1.659339 -1.6593381,1.36651"
     id="Upper_Lip_side" />
  <path
     style="fill:none;stroke:#000000;stroke-width:0.2;stroke-linecap:butt;stroke-linejoin:miter;stroke-miterlimit:4;stroke-dasharray:none;stroke-opacity:1"
     d="m -7.1909257,19.682595 -0.8504365,-0.779174 -1.2263514,1.616948 1.4097711,0.296932 z"
     id="Lower_Lip_side" />
  <path
     style="fill:none;stroke:#000000;stroke-width:0.2;stroke-linecap:butt;stroke-linejoin:miter;stroke-miterlimit:4;stroke-dasharray:none;stroke-opacity:1"
     d="m -9.4197036,23.84315 -8.9743774,-0.986639 -6.03197,-4.49434 3.21431,-1.848641 2.32409,-5.164209 10.8462888,7.5541 -1.2263514,1.616948 z"
     id="Extended_Oral_Cavity_side" />
  <path
     style="fill:none;stroke:#000000;stroke-width:0.2;stroke-linecap:butt;stroke-linejoin:miter;stroke-miterlimit:4;stroke-dasharray:none;stroke-opacity:1"
     d="m -13.840932,-3.0306178 1.576281,1.1624511 -7.13874,-0.1939011 0.84074,-1.109659 1.596989,-0.13846 3.12473,0.279569"
     id="Hyoid_bone_side" />
  <path
     style="fill:none;stroke:#000000;stroke-width:0.2;stroke-linecap:butt;stroke-linejoin:miter;stroke-miterlimit:4;stroke-dasharray:none;stroke-opacity:1"
     d="m -18.286946,-15.16509 -3.026035,-2.138778 -0.54807,-2.073969 3.71754,-1.028261 3.95485,0.949161 0.0306,3.19877 -4.128884,1.093077"
     id="Esophagus_side" />
  <path
     style="fill:none;stroke:#000000;stroke-width:0.2;stroke-linecap:butt;stroke-linejoin:miter;stroke-miterlimit:4;stroke-dasharray:none;stroke-opacity:1"
     d="m -40.917005,6.6556426 2.68928,-2.4519999 -2.45198,-3.63845997 -2.8475,0.94915897 -0.0791,3.163879 z"
     id="Brainstem_side" />
  <path
     style="fill:none;stroke:#000000;stroke-width:0.2;stroke-linecap:butt;stroke-linejoin:miter;stroke-miterlimit:4;stroke-dasharray:none;stroke-opacity:1"
     d="m -39.287725,-5.9272968 3.51203,1.50937 1.81921,-5.7740802 1.344649,-7.593311 -0.31637,-3.16388 -3.724099,0.4783 -1.85456,12.1033912 z"
     id="Spinal_Cord_side" />
  <path
     style="fill:none;stroke:#000000;stroke-width:0.264583px;stroke-linecap:butt;stroke-linejoin:miter;stroke-opacity:1"
     d="m -24.961284,-2.1193268 v 0 l -0.506907,-6.289883 4.97631,0.953572 3.15978,0.613371 -1.23055,3.67054 -0.84074,1.109659 z"
     id="Supraglottic_Larynx_side" />
  <path
     style="fill:none;stroke:#000000;stroke-width:0.264583px;stroke-linecap:butt;stroke-linejoin:miter;stroke-opacity:1"
     d="m -25.468191,-8.4092098 2.600402,-7.6984682 4.580843,0.942588 -1.155125,2.197657 -0.75874,1.243366 -0.29106,4.2684312 z"
     id="Larynx_side" />
  <path
     style="fill:none;stroke:#000000;stroke-width:0.264583px;stroke-linecap:butt;stroke-linejoin:miter;stroke-opacity:1"
     d="m -22.304301,1.2406217 -2.8473,-0.79065994 -3.500435,4.23884994 1.794385,1.2705109 1.70585,-1.1361499 2.13561,-0.893252 0.71189,-2.689299"
     id="MPC_side" />
  <path
     style="fill:none;stroke:#000000;stroke-width:0.264583px;stroke-linecap:butt;stroke-linejoin:miter;stroke-opacity:1"
     d="m -18.191261,7.6474806 5.93227,0.237292 -3.242969,-3.4802709 -1.141907,1.1370599 -1.547394,2.105919"
     id="Mylogeniohyoid_M_side" />
  <path
     style="fill:none;stroke:#000000;stroke-width:0.2;stroke-linecap:butt;stroke-linejoin:miter;stroke-miterlimit:4;stroke-dasharray:none;stroke-opacity:1"
     d="m -14.473731,-7.7764368 -0.547979,-3.1716492 -1.565595,-0.306488 -3.613506,-0.469493 -0.29106,2.4080804 v 1.8603498 l 3.15977,0.61337 2.85837,-0.93417"
     id="Lt_thyroid_lobe" />
  <path
     style="fill:none;stroke:#000000;stroke-width:0.264583px;stroke-linecap:butt;stroke-linejoin:miter;stroke-opacity:1"
     d="m -24.961284,-2.1193268 -0.190317,2.56928856 -3.500435,4.23884994 -1.447826,-5.47591143 4.631671,-7.62210907 z"
     id="IPC_side" />
  <path
     style="fill:none;stroke:#000000;stroke-width:0.264583px;stroke-linecap:butt;stroke-linejoin:miter;stroke-opacity:1"
     d="m -14.473731,-7.7764368 -0.09516,1.903177 -3.429322,0.839011 0.666112,-1.808018 z"
     id="Glottic_Area_side" />
  <path
     id="Esophagus2"
     style="opacity:0.996087;fill:none;stroke:#000000;stroke-width:0.2;stroke-linecap:butt;stroke-linejoin:miter;stroke-miterlimit:4;stroke-dasharray:none;stroke-opacity:1"
     d="m 3.4648438,-21.697266 c 0.2389322,1.134766 0.4778645,2.269532 0.7167968,3.404297 2.6212242,-0.368831 5.2616092,-0.689528 7.7949604,-1.491401 0.912082,0.02988 0.180707,-0.877534 0.151626,-1.384417 -0.202899,-0.716524 -0.405797,-1.433048 -0.608696,-2.149572 -2.6848956,0.540364 -5.3697914,1.080729 -8.0546872,1.621093 z" />
  <path
     id="Esophagus3"
     style="opacity:0.996087;fill:none;stroke:#000000;stroke-width:0.2;stroke-linecap:butt;stroke-linejoin:miter;stroke-miterlimit:4;stroke-dasharray:none;stroke-opacity:1"
     d="m 4.7207031,-20.869141 c 0.2439807,0.424393 -0.040283,1.602753 0.6890063,1.334462 1.9367134,-0.271663 3.8813072,-0.56161 5.7582596,-1.125477 -0.152908,-0.469994 -0.258392,-0.953817 -0.396485,-1.427735 -2.0169267,0.40625 -4.0338538,0.8125 -6.0507809,1.21875 z" />
  <path
     id="Cricoid_cartilage3"
     style="opacity:0.996087;fill:none;stroke:#000000;stroke-width:0.2;stroke-linecap:butt;stroke-linejoin:miter;stroke-miterlimit:4;stroke-dasharray:none;stroke-opacity:1"
     d="m 15.207031,-18.216797 c -0.520574,0.01263 -1.100928,0.07002 -1.457031,0.5 0.677797,-0.0714 1.330946,-0.283692 1.970703,-0.509765 -0.171224,0.0033 -0.342448,0.0065 -0.513672,0.0098 z" />
  <path
     id="Cricoid_cartilage2"
     style="opacity:0.996087;fill:none;stroke:#000000;stroke-width:0.2;stroke-linecap:butt;stroke-linejoin:miter;stroke-miterlimit:4;stroke-dasharray:none;stroke-opacity:1"
     d="m 16.513672,-18.835938 c -0.844888,0.151345 -1.766763,0.03844 -2.572393,0.250472 -0.556338,0.522015 -1.189296,0.963755 -1.693232,1.540544 1.030829,-0.208197 2.109977,-0.05954 3.101426,-0.491818 1.013641,-0.361845 2.015022,-0.760704 3.041152,-1.082401 -0.613091,-0.147295 -1.243535,-0.262156 -1.876953,-0.216797 z" />
  <path
     id="Larynx2"
     style="opacity:0.996087;fill:none;stroke:#000000;stroke-width:0.2;stroke-linecap:butt;stroke-linejoin:miter;stroke-miterlimit:4;stroke-dasharray:none;stroke-opacity:1"
     d="m 14.931641,-15.996094 c -0.750977,0.09182 -1.508657,0.150577 -2.263672,0.212891 0.945312,2.572917 1.890625,5.145833 2.835937,7.7187499 1.53711,-1.1217448 3.074219,-2.2434899 4.611328,-3.3652349 -0.452588,-1.46184 -1.132926,-2.880865 -1.380859,-4.388671 0.06086,-0.493825 0.463428,-1.363298 0.323687,-1.63659 -1.375473,0.486285 -2.750947,0.97257 -4.126421,1.458855 z" />
  <path
     id="Larynx3"
     style="opacity:0.996087;fill:none;stroke:#000000;stroke-width:0.2;stroke-linecap:butt;stroke-linejoin:miter;stroke-miterlimit:4;stroke-dasharray:none;stroke-opacity:1"
     d="m 17.933594,-16.226562 c -1.33572,0.462128 -2.69909,1.132549 -4.164063,1.144531 0.705078,1.919271 1.410156,3.838541 2.115235,5.7578122 1.098958,-0.8014322 2.197916,-1.6028642 3.296875,-2.4042972 -0.446917,-1.48 -1.302938,-2.947345 -1.154297,-4.53125 z" />
  <path
     id="Glottic_Area3"
     style="opacity:0.996087;fill:none;stroke:#000000;stroke-width:0.2;stroke-linecap:butt;stroke-linejoin:miter;stroke-miterlimit:4;stroke-dasharray:none;stroke-opacity:1"
     d="m 20.830078,-15.015625 c 0.281901,0.814453 0.563802,1.628906 0.845703,2.443359 1.092448,-0.492838 2.184896,-0.985677 3.277344,-1.478515 -0.251953,-0.77474 -0.503906,-1.549479 -0.755859,-2.324219 -1.122396,0.453125 -2.244792,0.90625 -3.367188,1.359375 z" />
  <path
     id="Glottic_Area2"
     style="opacity:0.996087;fill:none;stroke:#000000;stroke-width:0.2;stroke-linecap:butt;stroke-linejoin:miter;stroke-miterlimit:4;stroke-dasharray:none;stroke-opacity:1"
     d="m 20.166016,-15.318359 c 0.398437,1.152994 0.796875,2.305989 1.195312,3.458984 1.413412,-0.636719 2.826823,-1.273437 4.240234,-1.910156 -0.359374,-1.102865 -0.71875,-2.205729 -1.078124,-3.308594 -1.452474,0.586589 -2.904948,1.173177 -4.357422,1.759766 z" />
  <path
     id="Thyroid_cartilage3"
     style="opacity:0.996087;fill:none;stroke:#000000;stroke-width:0.2;stroke-linecap:butt;stroke-linejoin:miter;stroke-miterlimit:4;stroke-dasharray:none;stroke-opacity:1"
     d="m 22.357422,-10.5625 c 0.458651,1.3954616 0.745298,2.8666339 1.486328,4.1523438 0.67887,-0.4514724 1.376582,-0.8739509 2.066406,-1.3085938 -0.173828,-1.4036458 -0.347656,-2.807292 -0.521484,-4.210938 -1.010417,0.45573 -2.020833,0.911459 -3.03125,1.367188 z" />
  <path
     id="Thyroid_cartilage2"
     style="opacity:0.996087;fill:none;stroke:#000000;stroke-width:0.2;stroke-linecap:butt;stroke-linejoin:miter;stroke-miterlimit:4;stroke-dasharray:none;stroke-opacity:1"
     d="m 21.707031,-10.849609 c 0.609204,1.7388886 0.892321,3.6428254 1.982422,5.1738278 0.905317,-0.6278269 1.862176,-1.1742357 2.787109,-1.7714844 -0.218098,-1.7526042 -0.436197,-3.5052084 -0.654296,-5.2578124 -1.371745,0.618489 -2.74349,1.236979 -4.115235,1.855469 z" />
  <path
     id="Supraglottic_Larynx3"
     style="opacity:0.996087;fill:none;stroke:#000000;stroke-width:0.2;stroke-linecap:butt;stroke-linejoin:miter;stroke-miterlimit:4;stroke-dasharray:none;stroke-opacity:1"
     d="m 16.347656,-6.390625 c 0.437882,1.4942354 0.930868,2.9711272 1.414063,4.4511719 1.371088,0.06588 2.754112,-0.1515111 3.973424,-0.7977627 0.347198,-0.3008212 1.622295,-0.2853682 1.273633,-0.823373 -0.955052,-1.5285052 -1.815161,-3.1433403 -2.245232,-4.9027511 -0.149243,-0.3290649 -0.0905,-1.3137631 -0.588445,-0.7244702 -1.275814,0.9323951 -2.551629,1.8647901 -3.827443,2.7971851 z" />
  <path
     id="Supraglottic_Larynx2"
     style="opacity:0.996087;fill:none;stroke:#000000;stroke-width:0.2;stroke-linecap:butt;stroke-linejoin:miter;stroke-miterlimit:4;stroke-dasharray:none;stroke-opacity:1"
     d="m 15.736328,-6.5996094 c 0.506312,1.744619 1.082581,3.4674089 1.642578,5.1953125 1.436993,-0.00752 2.955195,0.025991 4.239886,-0.7158681 0.768996,-0.304346 1.537993,-0.6086921 2.306989,-0.9130381 -1.097701,-1.8388375 -2.246347,-3.6974469 -2.708456,-5.8168566 -0.26463,-0.3730978 -0.193622,-1.7665053 -0.770821,-1.1894213 -1.570059,1.1466236 -3.140117,2.2932476 -4.710176,3.4398716 z" />
  <path
     id="Cricopharyngeal_Muscle2"
     style="opacity:0.996087;fill:none;stroke:#000000;stroke-width:0.2;stroke-linecap:butt;stroke-linejoin:miter;stroke-miterlimit:4;stroke-dasharray:none;stroke-opacity:1"
     d="m 11.037109,-16.646484 c -1.0974658,0.383132 -2.2488301,0.58628 -3.365234,0.916015 -0.00421,1.49941 -0.2346003,3.029281 -0.078283,4.510292 0.3177608,0.601387 0.6355217,1.202774 0.9532825,1.8041614 1.1321615,-1.3997394 2.264323,-2.7994794 3.396484,-4.1992184 -0.291546,-1.000874 -0.760969,-2.059165 -0.90625,-3.03125 z" />
  <path
     id="Cricopharyngeal_Muscle3"
     style="opacity:0.996087;fill:none;stroke:#000000;stroke-width:0.2;stroke-linecap:butt;stroke-linejoin:miter;stroke-miterlimit:4;stroke-dasharray:none;stroke-opacity:1"
     d="m 10.087891,-15.810547 c -0.6320779,0.161836 -1.2645427,0.32487 -1.8964848,0.488281 0.02884,1.366581 -0.3392884,2.802185 0.039063,4.123047 0.1878859,0.151321 0.2431545,0.990837 0.4730447,0.750375 0.882683,-1.09127 1.7653665,-2.182541 2.6480485,-3.273812 -0.229149,-0.750199 -0.522798,-1.480547 -0.707031,-2.244141 -0.185547,0.05208 -0.371093,0.104167 -0.55664,0.15625 z" />
  <path
     id="IPC2"
     style="opacity:0.996087;fill:none;stroke:#000000;stroke-width:0.2;stroke-linecap:butt;stroke-linejoin:miter;stroke-miterlimit:4;stroke-dasharray:none;stroke-opacity:1"
     d="M 9.2910156,-8.2421875 C 9.8515625,-5.014974 10.412109,-1.7877604 10.972656,1.4394531 12.02535,0.79383521 13.170127,0.16768341 14.442889,0.22450926 15.074556,0.15813638 15.706223,0.0917635 16.337891,0.02539063 15.784612,-2.4296946 14.845693,-4.7761419 14.115205,-7.179088 c -0.572134,-1.6021091 -1.225045,-3.173231 -1.826143,-4.764271 -0.999348,1.233724 -1.998697,2.4674475 -2.9980464,3.7011715 z" />
  <path
     id="IPC3"
     style="opacity:0.996087;fill:none;stroke:#000000;stroke-width:0.2;stroke-linecap:butt;stroke-linejoin:miter;stroke-miterlimit:4;stroke-dasharray:none;stroke-opacity:1"
     d="m 10.130859,-8.0253906 c 0.47461,2.7324219 0.949219,5.4648437 1.423829,8.1972656 1.17476,-0.62342507 2.524501,-0.77931313 3.833984,-0.84375 -0.497175,-1.2306271 -0.760031,-2.5649168 -1.222981,-3.8028606 -0.652199,-1.9890181 -1.351805,-3.9630516 -2.120769,-5.9100304 -0.638021,0.7864587 -1.276042,1.572917 -1.914063,2.3593754 z" />
  <path
     id="Mylogeniohyoid_M3"
     style="opacity:0.996087;fill:none;stroke:#000000;stroke-width:0.2;stroke-linecap:butt;stroke-linejoin:miter;stroke-miterlimit:4;stroke-dasharray:none;stroke-opacity:1"
     d="m 24.929688,-1.7246094 c -0.843948,0.3452807 -1.783854,0.6887855 -2.56836,1.03515628 1.058148,0.28517841 2.183688,0.11634448 3.264531,0.29370484 2.482798,0.22891328 4.990779,0.25808552 7.462354,-0.0923127 0.305482,2.0036e-4 1.155071,0.0277251 0.548086,-0.34977323 -1.705091,-0.37469215 -3.337694,-1.24213355 -5.116651,-1.24976215 -1.196654,0.1209957 -2.393307,0.2419914 -3.58996,0.362987 z" />
  <path
     id="Mylogeniohyoid_M2"
     style="opacity:0.996087;fill:none;stroke:#000000;stroke-width:0.2;stroke-linecap:butt;stroke-linejoin:miter;stroke-miterlimit:4;stroke-dasharray:none;stroke-opacity:1"
     d="m 24.804688,-2.2441406 c -1.194011,0.4733073 -2.388021,0.9466146 -3.582032,1.41992185 0.561481,0.45673371 1.207377,0.9185819 1.971106,0.79550853 2.897273,0.12602557 5.804661,0.59606801 8.698846,0.18345898 0.914053,-0.08087979 1.828105,-0.16175959 2.742158,-0.24263938 -0.238407,-0.55046894 -0.365178,-1.33759298 -1.122823,-1.33028978 -1.532619,-0.4011417 -3.039394,-1.0245071 -4.599591,-1.2432468 -1.369221,0.1390955 -2.738443,0.2781911 -4.107664,0.4172866 z" />
  <path
     id="Mandible2"
     style="opacity:0.996087;fill:none;stroke:#000000;stroke-width:0.2;stroke-linecap:butt;stroke-linejoin:miter;stroke-miterlimit:4;stroke-dasharray:none;stroke-opacity:1"
     d="m 35.667969,-1 c 0.751596,1.81669401 2.348451,3.1068346 3.265625,4.8144531 0.154429,0.8683087 -0.02812,1.9518768 0.777333,2.5452166 0.91016,1.0799799 1.82032,2.1599598 2.730479,3.2399397 0.40419,-0.308221 1.582371,-0.2411841 1.390613,-0.8383409 -0.239392,-0.896737 -0.67653,-1.8052693 -0.796863,-2.6948623 0.3148,-0.9188424 1.129933,-1.664644 1.070488,-2.6485699 C 43.796096,2.34058 43.753917,1.1398987 43.197095,0.15973241 42.536345,-0.43387631 41.875594,-1.027485 41.214844,-1.6210938 39.365885,-1.4140625 37.516927,-1.2070312 35.667969,-1 Z" />
  <path
     id="Mandible3"
     style="opacity:0.996087;fill:none;stroke:#000000;stroke-width:0.2;stroke-linecap:butt;stroke-linejoin:miter;stroke-miterlimit:4;stroke-dasharray:none;stroke-opacity:1"
     d="m 39.757812,-0.65820312 c -0.947384,0.11212552 -1.898587,0.21401384 -2.847656,0.3203125 0.888536,1.44848292 2.34013,2.59292242 2.831514,4.25777452 0.06082,0.7630075 0.0708,1.6761875 0.768227,2.1564628 0.735533,0.8564355 1.432275,1.7465843 2.202994,2.5740439 0.567027,-0.024144 -0.10915,-0.6914909 -0.08498,-1.0188341 C 42.235658,6.7337407 42.094288,5.621103 42.771247,4.8156385 43.193662,4.2215683 43.458549,3.4712401 43.142064,2.7742738 42.958332,1.7126951 42.753525,0.44625112 41.690093,-0.09483221 41.332966,-0.5008957 40.916126,-1.0005512 40.304787,-0.72785525 c -0.182325,0.0232174 -0.36465,0.0464347 -0.546975,0.0696521 z" />
  <path
     id="Spinal_Cord3"
     style="opacity:0.996087;mix-blend-mode:normal;fill:none;stroke:#000000;stroke-width:0.2;stroke-linecap:butt;stroke-linejoin:miter;stroke-miterlimit:4;stroke-dasharray:none;stroke-opacity:1;image-rendering:auto"
     d="m -1.296875,-13.025391 c 0.36235436,4.0403698 0.35267968,8.2293793 2.1076383,11.9562268 0.2351535,0.47583782 0.2488083,1.29306632 0.9662778,0.87548845 C 2.4066992,-0.32377863 3.0363574,-0.4538815 3.6660156,-0.58398438 2.8253965,-3.545719 1.6218835,-6.428139 1.188468,-9.4871417 1.1067651,-11.157443 1.0250623,-12.827745 0.94335938,-14.498047 c -0.78450521,-0.09896 -1.56901042,-0.197917 -2.35351558,-0.296875 0.03776,0.589844 0.075521,1.179688 0.1132812,1.769531 z" />
  <path
     id="Spinal_Cord2"
     style="opacity:0.996087;mix-blend-mode:normal;fill:none;stroke:#000000;stroke-width:0.2;stroke-linecap:butt;stroke-linejoin:miter;stroke-miterlimit:4;stroke-dasharray:none;stroke-opacity:1;image-rendering:auto"
     d="m -2.0878906,-12.964844 c 0.239262,3.1542723 0.4075254,6.3108433 1.09944937,9.3950531 0.45213009,1.5099457 1.18848148,2.90107688 1.66226935,4.41549402 C 2.0084635,0.5703125 3.343099,0.29492188 4.6777344,0.01953125 3.7976419,-2.9663033 2.7381959,-5.9065486 2.0106954,-8.9299565 1.9075209,-11.020362 1.8043464,-13.110767 1.7011719,-15.201172 c -1.32226565,-0.166667 -2.64453128,-0.333333 -3.9667969,-0.5 0.059245,0.91211 0.1184896,1.824219 0.1777344,2.736328 z" />
  <path
     id="MPC3"
     style="opacity:0.996087;fill:none;stroke:#000000;stroke-width:0.2;stroke-linecap:butt;stroke-linejoin:miter;stroke-miterlimit:4;stroke-dasharray:none;stroke-opacity:1"
     d="m 16.705078,2.3496094 c -1.498214,0.2656211 -3.157511,0.1248948 -4.457156,1.044226 -0.111473,0.2588791 0.236288,0.6826212 0.232298,1.0126526 0.261802,0.9999206 0.523603,1.9998413 0.785405,2.999762 0.782552,-0.019531 1.565104,-0.039063 2.347656,-0.058594 0.466392,-1.6582881 0.987653,-3.3012337 1.414063,-4.9707031 -0.103544,-0.034741 -0.214566,-0.037448 -0.322266,-0.027344 z" />
  <path
     id="MPC2"
     style="opacity:0.996087;fill:none;stroke:#000000;stroke-width:0.2;stroke-linecap:butt;stroke-linejoin:miter;stroke-miterlimit:4;stroke-dasharray:none;stroke-opacity:1"
     d="m 16.359375,1.6210938 c -1.389576,0.2184581 -2.923745,0.032021 -4.114463,0.926503 -0.632681,0.26081 -1.1866,0.5556699 -0.735701,1.2849255 0.382346,1.4607738 0.764693,2.9215476 1.147039,4.3823215 C 13.843099,8.1848958 15.029948,8.1549479 16.216797,8.125 16.815104,6.0572917 17.413411,3.9895833 18.011719,1.921875 17.495074,1.6595095 16.946311,1.4151295 16.359375,1.6210938 Z" />
  <path
     style="opacity:0.996087;fill:none;stroke:#000000;stroke-width:0.1984375;stroke-linecap:butt;stroke-linejoin:miter;stroke-miterlimit:4;stroke-dasharray:none;stroke-opacity:1"
     d="m 17.701393,0.5933786 1.265085,0.56889 2.344394,-0.7900552 -1.488962,-1.03580326 -2.330534,0.064725 0.210016,1.1922435"
     id="Hyoid_bone2" />
  <path
     style="opacity:0.996087;fill:none;stroke:#000000;stroke-width:0.198437;stroke-linecap:butt;stroke-linejoin:miter;stroke-miterlimit:4;stroke-dasharray:none;stroke-opacity:1"
     d="m 18.285135,0.41384504 0.711611,0.3200006 1.318721,-0.444406 -0.837541,-0.5826394 -1.310925,0.036408 0.118134,0.670637"
     id="Hyoid_bone3" />
  <path
     id="Masseter_M2"
     style="opacity:0.996087;fill:none;stroke:#000000;stroke-width:0.2;stroke-linecap:butt;stroke-linejoin:miter;stroke-miterlimit:4;stroke-dasharray:none;stroke-opacity:1"
     d="M 22.269531,1.2597656 C 21.39639,1.4106751 20.505982,1.8416464 19.613281,2.1074219 18.977214,4.3046875 18.341146,6.5019531 17.705078,8.6992188 18.464844,9.5625 19.224609,10.425781 19.984375,11.289062 21.725911,10.777995 23.467448,10.266927 25.208984,9.7558594 25.353556,6.9807971 25.700455,4.1669229 25.181641,1.4101562 24.21335,1.3488901 23.239003,1.2732684 22.269531,1.2597656 Z" />
  <path
     id="Masseter_M3"
     style="opacity:0.996087;fill:none;stroke:#000000;stroke-width:0.2;stroke-linecap:butt;stroke-linejoin:miter;stroke-miterlimit:4;stroke-dasharray:none;stroke-opacity:1"
     d="M 22.427734,2.0761719 C 21.668428,2.1495827 20.981736,2.5040392 20.261719,2.7265625 19.704427,4.6510417 19.147135,6.5755208 18.589844,8.5 c 0.552734,0.6289063 1.105468,1.2578125 1.658203,1.886719 1.401693,-0.4114586 2.803385,-0.8229169 4.205078,-1.2343752 0.131868,-2.3251492 0.364407,-4.6703799 0.03906,-6.9902344 -0.687396,-0.043502 -1.374858,-0.1128888 -2.064454,-0.085937 z" />
  <path
     id="Genioglossus_M2"
     style="opacity:0.996087;fill:none;stroke:#000000;stroke-width:0.2;stroke-linecap:butt;stroke-linejoin:miter;stroke-miterlimit:4;stroke-dasharray:none;stroke-opacity:1"
     d="M 29.498047,1.6953125 C 28.60365,1.6384282 27.708961,1.5679128 26.814453,1.5058594 c 0.17153,1.1116202 0.245989,2.2385403 0.222656,3.3632812 2.315701,-0.5527595 4.682539,0.00772 7.019097,0.064236 1.144676,0.076244 2.289352,0.1524885 3.434028,0.2287328 C 37.555941,4.3510378 37.053842,3.7246252 36.555153,3.1544734 36.057602,2.504675 35.560051,1.8548765 35.0625,1.2050781 33.207682,1.3684896 31.352865,1.531901 29.498047,1.6953125 Z" />
  <path
     id="Genioglossus_M3"
     style="opacity:0.996087;fill:none;stroke:#000000;stroke-width:0.2;stroke-linecap:butt;stroke-linejoin:miter;stroke-miterlimit:4;stroke-dasharray:none;stroke-opacity:1"
     d="m 34.242188,2.0527344 c -2.16859,0.1780159 -4.346079,0.5708822 -6.523438,0.3105468 0.06016,0.5224822 0.09359,1.0482623 0.09961,1.5742188 2.79552,-0.2986693 5.587063,0.2981045 8.376226,0.3391338 C 36.73927,4.3540283 35.772326,3.5373592 35.645117,3.2738807 35.300769,2.9065769 35.036584,2.4454062 34.732422,2.0625 34.57325,2.0050494 34.405151,2.032739 34.242188,2.0527344 Z" />
  <path
     id="Tongue2"
     style="opacity:0.996087;fill:none;stroke:#000000;stroke-width:0.2;stroke-linecap:butt;stroke-linejoin:miter;stroke-miterlimit:4;stroke-dasharray:none;stroke-opacity:1"
     d="m 26.994141,6.4902344 c -0.06771,1.1139323 -0.135417,2.2278646 -0.203125,3.3417968 1.673765,0.6272548 3.295753,1.4524748 5.023788,1.8995098 2.85536,-0.123366 5.75179,0.104047 8.575821,-0.360447 0.285137,-0.226757 0.817434,-0.651565 0.686103,-0.981508 C 39.984735,9.2614931 39.038525,7.9647674 37.988281,6.7832031 34.825371,6.609601 31.659298,6.2663795 28.496081,6.239911 c -0.500647,0.083441 -1.001294,0.1668823 -1.50194,0.2503234 z" />
  <path
     id="Tongue3"
     style="opacity:0.996087;fill:none;stroke:#000000;stroke-width:0.2;stroke-linecap:butt;stroke-linejoin:miter;stroke-miterlimit:4;stroke-dasharray:none;stroke-opacity:1"
     d="m 28.103516,7.1113281 c -0.693477,-0.00732 -0.273628,0.9899638 -0.442714,1.4561111 -0.263639,0.6938069 0.218655,0.8878772 0.784261,1.0598763 1.602711,0.7175925 3.289951,1.5113555 5.098293,1.2703235 2.213614,-0.04198 4.464753,0.09805 6.642191,-0.35467 C 39.24164,9.625769 38.479785,8.5352939 37.601562,7.5546875 34.43544,7.4097197 31.278501,6.9534091 28.103516,7.1113281 Z" />
  <path
     id="SPC2"
     style="opacity:0.996087;fill:none;stroke:#000000;stroke-width:0.2;stroke-linecap:butt;stroke-linejoin:miter;stroke-miterlimit:4;stroke-dasharray:none;stroke-opacity:1"
     d="m 12.832031,9.796875 c -0.08309,1.613302 -0.09622,3.258816 0.443236,4.802035 0.341187,1.39216 0.682374,2.78432 1.023561,4.176481 0.899157,0.415793 1.777636,0.992977 2.796875,1.035156 0.245425,-0.835862 0.630679,-1.607604 1.212825,-2.260234 0.567422,-0.774705 1.177556,-1.517473 1.750066,-2.288594 -0.524871,-1.373732 -0.94105,-2.880099 -2.104775,-3.871402 -0.542463,-0.534229 -0.991756,-1.282446 -1.590894,-1.6865102 -1.176964,0.031023 -2.353929,0.062045 -3.530894,0.093068 z" />
  <path
     id="SPC3"
     style="opacity:0.996087;fill:none;stroke:#000000;stroke-width:0.2;stroke-linecap:butt;stroke-linejoin:miter;stroke-miterlimit:4;stroke-dasharray:none;stroke-opacity:1"
     d="m 15.699219,10.480469 c -0.694784,0.09464 -1.407954,0.04652 -2.109375,0.08984 -0.169088,2.632579 0.86568,5.119633 1.394531,7.654297 0.521022,0.243852 1.025242,0.541106 1.583984,0.691407 0.575302,-1.442178 1.708276,-2.543227 2.59961,-3.785157 C 18.72538,13.699916 17.981735,12.34528 16.85261,11.348902 16.542445,10.997349 16.249661,10.415825 15.699219,10.480469 Z" />
  <path
     style="opacity:0.996087;fill:none;stroke:#000000;stroke-width:0.2;stroke-linecap:butt;stroke-linejoin:miter;stroke-miterlimit:4;stroke-dasharray:none;stroke-opacity:1"
     d="m 44.726562,10.449219 -2.054687,0.765625 -0.21875,0.257812 1.949219,0.177735 0.492187,-1.044922 z"
     id="Lower_Lip3"
     inkscape:path-effect="#path-effect1379"
     inkscape:original-d="m 44.889267,12.498052 -4.042262,-0.36748 1.347412,-1.5924 2.714368,-1.0104999 0.960422,0.8880109 -0.97994,2.082369" />
  <path
     style="opacity:0.996087;fill:none;stroke:#000000;stroke-width:0.2;stroke-linecap:butt;stroke-linejoin:miter;stroke-miterlimit:4;stroke-dasharray:none;stroke-opacity:1"
     d="M 44.818359,9.9882812 42.431641,10.875 l -0.783203,0.927734 2.998046,0.271485 0.736328,-1.564453 z"
     id="Lower_Lip2"
     inkscape:path-effect="#path-effect1377"
     inkscape:original-d="m 44.889444,12.497695 -4.042262,-0.36748 1.347412,-1.5924 2.714368,-1.0105 0.960422,0.888011 -0.97994,2.082369" />
  <path
     style="opacity:0.996087;fill:none;stroke:#000000;stroke-width:0.200025;stroke-linecap:butt;stroke-linejoin:miter;stroke-miterlimit:4;stroke-dasharray:none;stroke-opacity:1"
     d="m 41.466797,12.587891 0.34375,0.849609 3.3125,2.310547 0.646484,-1.154297 -1.111328,-1.714844 z"
     id="Upper_Lip2"
     inkscape:path-effect="#path-effect1402"
     inkscape:original-d="m 44.889267,12.498052 1.347417,2.082371 -0.980387,1.747978 -3.772705,-2.630938 -0.636587,-1.566891 z" />
  <path
     style="opacity:0.996087;fill:none;stroke:#000000;stroke-width:0.2;stroke-linecap:butt;stroke-linejoin:miter;stroke-miterlimit:4;stroke-dasharray:none;stroke-opacity:1"
     d="m 42.082031,13.046875 0.05273,0.128906 2.855468,1.992188 0.3125,-0.556641 -0.875,-1.351562 z"
     id="Upper_Lip3"
     inkscape:path-effect="#path-effect1404"
     inkscape:original-d="m 44.889267,12.498052 1.347417,2.082371 -0.980387,1.747978 -3.772705,-2.630938 -0.636587,-1.566891 z" />
  <path
     id="Extended_Oral_Cavity3"
     style="opacity:0.996087;fill:none;stroke:#000000;stroke-width:0.2;stroke-linecap:butt;stroke-linejoin:miter;stroke-miterlimit:4;stroke-dasharray:none;stroke-opacity:1"
     d="m 25.761719,12.058594 c -1.305434,0.392227 -2.616898,0.794958 -3.931641,1.169922 0.141755,0.505622 0.345046,1.117269 0.961885,1.152631 1.432248,0.659486 3.021364,0.777666 4.573499,0.716802 4.485935,0.08464 8.984473,0.492173 13.464616,0.06416 -0.430259,-0.358007 -0.811818,-0.797226 -1.019531,-1.322265 -2.795314,0.32494 -5.622956,0.196328 -8.426395,0.227571 -1.982427,-0.340172 -3.691769,-1.518596 -5.622433,-2.008821 z" />
  <path
     id="Extended_Oral_Cavity2"
     style="opacity:0.996087;fill:none;stroke:#000000;stroke-width:0.2;stroke-linecap:butt;stroke-linejoin:miter;stroke-miterlimit:4;stroke-dasharray:none;stroke-opacity:1"
     d="m 23.916016,11.787109 c -1.047526,0.307292 -2.095052,0.614584 -3.142578,0.921875 0.265624,0.684245 0.531249,1.36849 0.796874,2.052735 1.46641,0.525421 2.868261,1.250455 4.473703,1.096582 4.300309,0.09015 8.602866,0.352841 12.903009,0.282533 1.364013,-0.132882 2.728026,-0.265764 4.092038,-0.398646 -0.834923,-0.631127 -1.910282,-1.100125 -2.439947,-2.036789 -0.109488,-0.335504 -0.117621,-0.909109 -0.626459,-0.646805 -2.740956,0.322977 -5.510292,0.128531 -8.259765,0.263672 -1.557433,-0.192641 -2.912426,-1.073437 -4.385128,-1.557004 -0.69021,-0.258646 -1.419946,-0.769585 -2.15354,-0.348738 -0.419402,0.123528 -0.838805,0.247057 -1.258207,0.370585 z" />
  <path
     id="Soft_Palate3"
     style="opacity:0.996087;fill:none;stroke:#000000;stroke-width:0.2;stroke-linecap:butt;stroke-linejoin:miter;stroke-miterlimit:4;stroke-dasharray:none;stroke-opacity:1"
     d="m 19.269531,19.34375 c -0.400307,0.603031 0.162674,0.553242 0.687925,0.625995 1.37735,0.174637 2.865371,0.719939 4.184438,0.03873 0.28001,-0.248207 1.564201,-0.213185 0.961551,-0.707453 -0.722909,-0.956618 -1.482878,-2.031103 -2.743373,-2.272561 -0.615669,-0.293584 -1.218917,-0.544451 -1.516091,0.257308 -0.524816,0.685993 -1.049633,1.371985 -1.57445,2.057978 z" />
  <path
     id="Soft_Palate2"
     style="opacity:0.996087;fill:none;stroke:#000000;stroke-width:0.2;stroke-linecap:butt;stroke-linejoin:miter;stroke-miterlimit:4;stroke-dasharray:none;stroke-opacity:1"
     d="m 18.773438,19.121094 c -0.05511,0.408326 -0.39109,0.773373 -0.4375,1.146484 1.619511,0.18612 3.25572,0.610972 4.857774,0.641947 1.011601,-0.363722 2.023202,-0.727444 3.034804,-1.091166 -0.832159,-0.936293 -1.535924,-2.027904 -2.476673,-2.843095 -0.868453,-0.319228 -1.736906,-0.638457 -2.605359,-0.957686 -0.791015,1.034505 -1.582031,2.069011 -2.373046,3.103516 z" />
  <path
     id="Hard_Palate3"
     style="opacity:0.996087;fill:none;stroke:#000000;stroke-width:0.2;stroke-linecap:butt;stroke-linejoin:miter;stroke-miterlimit:4;stroke-dasharray:none;stroke-opacity:1"
     d="m 38.3125,18.064453 c -3.917538,-0.113261 -7.836009,-0.230799 -11.753906,-0.345703 0.533267,0.545153 0.886383,1.514929 1.783374,1.452381 3.129488,0.472222 6.25959,1.227077 9.447035,0.9735 1.286876,-0.06486 2.638776,0.05799 3.872533,-0.331811 0.591122,-0.326538 1.356712,-0.506719 1.838183,-0.925241 -0.04003,-0.41835 0.766878,-1.559486 -0.04632,-1.318001 -1.713634,0.164958 -3.427269,0.329917 -5.140903,0.494875 z" />
  <path
     id="Hard_Palate2"
     style="opacity:0.996087;fill:none;stroke:#000000;stroke-width:0.2;stroke-linecap:butt;stroke-linejoin:miter;stroke-miterlimit:4;stroke-dasharray:none;stroke-opacity:1"
     d="m 38.261719,17.537109 c -4.287981,-0.124967 -8.576895,-0.254238 -12.865235,-0.380859 0.666016,0.803385 1.332032,1.606771 1.998047,2.410156 2.663678,0.373002 5.309812,0.946311 7.987354,1.17227 2.015435,-0.09488 4.056677,-0.02666 6.054803,-0.245014 0.829047,-0.378096 1.658093,-0.756191 2.48714,-1.134287 0.209636,-0.809896 0.419271,-1.619792 0.628906,-2.429687 -2.097005,0.202473 -4.19401,0.404947 -6.291015,0.607421 z" />
  <path
     id="Brainstem3"
     style="opacity:0.996087;fill:none;stroke:#000000;stroke-width:0.2;stroke-linecap:butt;stroke-linejoin:miter;stroke-miterlimit:4;stroke-dasharray:none;stroke-opacity:1"
     d="m 3.2480469,16.984375 c -1.1620494,0.171597 -2.3238985,0.306032 -3.4902344,0.441406 -0.22940303,1.186749 -0.45679375,2.522203 0.27148438,3.587891 0.27078207,0.480135 0.23713467,1.388129 0.953125,1.367187 C 2.2821618,22.639387 3.731746,23.193661 4.9656008,22.412346 5.428337,22.145971 6.1741459,22.126608 6.1672342,21.46276 6.5094426,20.359806 7.0044968,19.130099 6.4186846,18.015589 6.3659214,17.580049 6.04069,17.33325 5.61608,17.336094 4.8239238,17.154402 4.0816852,16.935884 3.2480469,16.984375 Z" />
  <path
     id="Brainstem2"
     style="opacity:0.996087;fill:none;stroke:#000000;stroke-width:0.2;stroke-linecap:butt;stroke-linejoin:miter;stroke-miterlimit:4;stroke-dasharray:none;stroke-opacity:1"
     d="m 3.1640625,16.193359 c -1.3604977,0.225134 -2.73911868,0.335816 -4.10742188,0.511719 -0.082623,1.111557 -0.50724782,2.251257 -0.28079462,3.353505 0.3982857,0.989587 0.79657141,1.979174 1.19485712,2.968761 C 1.3634452,23.206662 2.7491318,23.707916 4.152224,23.629981 5.01229,23.255274 5.8723559,22.880566 6.7324219,22.505859 6.9776234,21.275815 7.55113,20.076375 7.5402607,18.818052 7.2970228,18.144326 7.0537848,17.470601 6.8105469,16.796875 5.6019973,16.563573 4.416145,16.096237 3.1640625,16.193359 Z" />
  <path
     id="Lt_Lateral_Pterygoid_M2"
     style="fill:none;stroke:#000000;stroke-width:0.2;stroke-linecap:butt;stroke-linejoin:miter;stroke-miterlimit:4;stroke-dasharray:none;stroke-opacity:1"
     d="m -27.715493,13.939453 c 0.32083,0.818537 0.394327,1.792316 0.90587,2.497613 0.793746,0.438946 1.587493,0.877893 2.381239,1.31684 0.798177,-0.458333 1.596354,-0.916666 2.394531,-1.375 -0.773324,-0.918049 -1.796046,-1.729981 -1.990013,-2.989006 -0.189386,-0.588462 -0.256717,-1.46535 -0.98137,-0.788924 -0.903419,0.446159 -1.806838,0.892318 -2.710257,1.338477 z" />
  <path
     id="Lt_Lateral_Pterygoid_M3"
     style="fill:none;stroke:#000000;stroke-width:0.2;stroke-linecap:butt;stroke-linejoin:miter;stroke-miterlimit:4;stroke-dasharray:none;stroke-opacity:1"
     d="m -24.781899,13.058594 c -0.734884,0.427935 -1.523794,0.753245 -2.277344,1.146484 0.234841,0.824447 0.314706,1.912512 1.292539,2.202654 0.53236,0.143556 1.069913,0.922654 1.598392,0.591164 0.27614,-0.33729 1.572796,-0.516886 1.099624,-0.969962 -0.809603,-0.834576 -1.444809,-1.867923 -1.615555,-3.030887 l -0.08499,0.05269 z" />
  <path
     id="Lt_Masseter_M3"
     style="fill:none;stroke:#000000;stroke-width:0.2;stroke-linecap:butt;stroke-linejoin:miter;stroke-miterlimit:4;stroke-dasharray:none;stroke-opacity:1"
     d="m -23.498696,5.8046875 c -1.643631,0.6581126 -2.917034,1.9286595 -4.075831,3.2240281 -0.311606,0.2853051 -0.661598,0.52359 -1.002294,0.7720656 0.303385,0.5852868 0.606771,1.1705728 0.910156,1.7558598 1.807987,-0.896094 3.603229,-1.8205581 5.347656,-2.8359379 -0.135603,-0.9530631 0.01793,-2.1640216 -0.911784,-2.7647719 -0.07342,-0.064028 -0.154155,-0.1819665 -0.267903,-0.1512437 z" />
  <path
     id="Lt_Masseter_M2"
     style="fill:none;stroke:#000000;stroke-width:0.2;stroke-linecap:butt;stroke-linejoin:miter;stroke-miterlimit:4;stroke-dasharray:none;stroke-opacity:1"
     d="m -23.377603,4.9316406 c -1.467277,0.5368444 -2.829251,1.3811144 -3.854076,2.5792725 -0.617496,0.8583691 -1.511041,1.444859 -2.366627,2.0398681 0.529297,1.0208338 1.058594,2.0416668 1.587891,3.0624998 2.223807,-1.088572 4.409091,-2.190547 6.535156,-3.4628904 -0.06651,-0.9329872 -0.194234,-1.8777838 -0.33789,-2.7929687 -0.325896,-0.6010777 -0.952424,-0.9896525 -1.40625,-1.4589844 l -0.09787,0.02054 z" />
  <path
     id="Lt_Ant_Digastric_M3"
     style="fill:none;stroke:#000000;stroke-width:0.2;stroke-linecap:butt;stroke-linejoin:miter;stroke-miterlimit:4;stroke-dasharray:none;stroke-opacity:1"
     d="m -14.819009,1.4296875 c -0.340385,0.4562442 0.07053,1.0455013 0.07655,1.5652133 0.08467,0.8643619 0.68807,1.4863948 1.284111,2.0470191 0.759345,0.7731218 1.345229,1.7034984 2.365902,2.1045645 0.0046,-1.6401886 -1.007084,-3.0497992 -2.050781,-4.2324219 -0.473633,-0.5772968 -0.979516,-1.1304421 -1.564454,-1.5976563 l -0.07009,0.071323 z" />
  <path
     id="Lt_Ant_Digastric_M2"
     style="fill:none;stroke:#000000;stroke-width:0.2;stroke-linecap:butt;stroke-linejoin:miter;stroke-miterlimit:4;stroke-dasharray:none;stroke-opacity:1"
     d="m -14.742837,0.6171875 c -0.316958,0.27502079 -0.676557,0.6559408 -0.810508,1.013672 0.260206,0.8975096 0.242672,1.9281466 0.730784,2.725718 0.988384,1.0127516 1.886578,2.1416183 2.946912,3.0672506 0.396406,0.059022 0.735406,0.3237271 1.132812,0.3671875 0.305907,-0.6268022 0.248837,-1.3175809 -0.03854,-1.930735 -0.184534,-0.8789747 -0.587821,-1.6826207 -1.209296,-2.3311339 -0.733391,-1.0160085 -1.555102,-1.9841205 -2.535572,-2.75595098 -0.05226,-0.0546509 -0.12143,-0.19330454 -0.216594,-0.15600822 z" />
  <path
     id="Lt_Submandibular_Gland3"
     style="fill:none;stroke:#000000;stroke-width:0.2;stroke-linecap:butt;stroke-linejoin:miter;stroke-miterlimit:4;stroke-dasharray:none;stroke-opacity:1"
     d="m -21.451821,2.1699219 c -0.02113,0.5750741 -0.671356,1.314243 -0.106363,1.7364322 0.838374,0.9367633 1.892474,1.6576872 2.963156,2.2785438 0.332516,0.1688289 0.456917,-0.6284832 0.750568,-0.7835593 0.179346,-0.3588875 0.734822,-0.7176459 0.724644,-1.0269226 -0.914705,-0.8253262 -1.82941,-1.6506523 -2.744115,-2.4759785 -0.529297,0.090495 -1.058593,0.1809896 -1.58789,0.2714844 z" />
  <path
     id="Lt_Submandibular_Gland2"
     style="fill:none;stroke:#000000;stroke-width:0.2;stroke-linecap:butt;stroke-linejoin:miter;stroke-miterlimit:4;stroke-dasharray:none;stroke-opacity:1"
     d="m -21.877603,1.7050781 c -0.182942,0.6888021 -0.365885,1.3776042 -0.548828,2.0664063 0.97969,1.0206771 1.977485,2.0679587 3.289063,2.6542968 0.280356,0.1305383 0.791382,0.8296454 0.998332,0.2531936 0.578304,-0.7857006 1.138528,-1.5963608 1.857137,-2.2629592 -1.139323,-1.0279948 -2.278646,-2.0559896 -3.417969,-3.0839844 -0.725912,0.124349 -1.451823,0.248698 -2.177735,0.3730469 z" />
  <path
     id="Lt_Parotid_Gland3"
     style="fill:none;stroke:#000000;stroke-width:0.2;stroke-linecap:butt;stroke-linejoin:miter;stroke-miterlimit:4;stroke-dasharray:none;stroke-opacity:1"
     d="m -29.197915,6.2597656 c -0.584342,0.357736 -1.167058,0.7181149 -1.75,1.078125 0.223036,0.2775835 0.46158,0.8469487 0.801315,0.3425133 0.628391,-0.451863 1.193446,-0.9856563 1.726029,-1.5456383 -0.269584,-0.361413 -0.469478,-0.010194 -0.777344,0.125 z" />
  <path
     id="Lt_Parotid_Gland2"
     style="fill:none;stroke:#000000;stroke-width:0.2;stroke-linecap:butt;stroke-linejoin:miter;stroke-miterlimit:4;stroke-dasharray:none;stroke-opacity:1"
     d="m -28.74479,5.3769531 c -1.03112,0.5810597 -2.019666,1.2531338 -3.042969,1.8554688 0.414714,0.4550781 0.829427,0.9101562 1.244141,1.3652343 1.022695,-0.6304815 1.916968,-1.4413405 2.72233,-2.3174918 0.507725,-0.3381521 -0.413756,-0.5244834 -0.538736,-0.7860238 -0.0937,-0.1149161 -0.240725,-0.1759608 -0.384766,-0.1171875 z" />
  <path
     id="Lt_thyroid_lobe3"
     style="fill:none;stroke:#000000;stroke-width:0.2;stroke-linecap:butt;stroke-linejoin:miter;stroke-miterlimit:4;stroke-dasharray:none;stroke-opacity:1"
     d="m -19.430337,-9.3203125 c 0.1797,0.3552237 -0.346775,1.0579999 0.271484,1.0332031 0.918869,0.2394405 1.954282,0.516555 2.81836,-0.033203 0.686647,0.053247 0.770344,-0.3498571 0.541319,-0.9328148 0.06986,-0.713603 -0.339664,-0.9599948 -0.999592,-0.9472238 -0.825263,-0.131061 -1.654935,-0.230312 -2.483133,-0.340665 -0.04948,0.406901 -0.09896,0.8138026 -0.148438,1.2207035 z" />
  <path
     id="Lt_thyroid_lobe2"
     style="fill:none;stroke:#000000;stroke-width:0.2;stroke-linecap:butt;stroke-linejoin:miter;stroke-miterlimit:4;stroke-dasharray:none;stroke-opacity:1"
     d="m -19.96354,-9.3007812 c 0.106079,0.4660598 -0.14525,0.97449 0.03711,1.4160156 1.130618,0.1145548 2.302972,0.7581617 3.402857,0.2197975 0.405937,-0.2938948 1.537469,-0.1514178 1.401427,-0.7712581 -0.119006,-0.6872736 -0.238012,-1.3745471 -0.357018,-2.0618208 -1.38018,-0.299092 -2.84027,-0.440439 -4.261719,-0.634765 -0.07422,0.610677 -0.148437,1.2213537 -0.222657,1.8320308 z" />
  <path
     id="Lt_Sternocleidomastoid_M3"
     style="fill:none;stroke:#000000;stroke-width:0.2;stroke-linecap:butt;stroke-linejoin:miter;stroke-miterlimit:4;stroke-dasharray:none;stroke-opacity:1"
     d="m -29.764321,-20.794922 c -0.129522,3.077564 -0.02068,6.229633 -1.019585,9.187197 -0.633062,2.6463684 -1.308918,5.4186808 -2.799567,7.6885364 -0.626038,1.130615 -1.252076,2.2612299 -1.878114,3.39184485 0.485677,0.99869792 0.971354,1.99739585 1.457031,2.99609375 2.464129,-4.0345578 5.057371,-7.9679625 7.28582,-12.1338333 1.046417,-3.1091967 2.108271,-6.2135417 3.081368,-9.3466357 -0.615886,-0.724609 -1.231771,-1.449219 -1.847656,-2.173828 -1.426433,0.130208 -2.852865,0.260417 -4.279297,0.390625 z" />
  <path
     id="Lt_Sternocleidomastoid_M2"
     style="fill:none;stroke:#000000;stroke-width:0.2;stroke-linecap:butt;stroke-linejoin:miter;stroke-miterlimit:4;stroke-dasharray:none;stroke-opacity:1"
     d="m -30.522134,-21.521484 c -0.14879,2.46253 -0.06755,4.951386 -0.416544,7.394478 -0.72569,2.538394 -1.213784,5.1605069 -2.129594,7.6339846 -1.0966,1.9794446 -2.1932,3.9588893 -3.289799,5.9383339 0.757161,1.5546875 1.514323,3.109375 2.271484,4.6640625 2.698673,-4.362632 5.460127,-8.7002589 7.996843,-13.1513828 1.134093,-3.3773272 2.308795,-6.7417392 3.343001,-10.1513512 -0.799479,-0.939454 -1.598958,-1.878907 -2.398438,-2.81836 -1.792317,0.163412 -3.584635,0.326823 -5.376953,0.490235 z" />
  <path
     id="Lt_Medial_Pterygoid_M3"
     style="fill:none;stroke:#000000;stroke-width:0.2;stroke-linecap:butt;stroke-linejoin:miter;stroke-miterlimit:4;stroke-dasharray:none;stroke-opacity:1"
     d="m -22.791665,12.039062 c 0.260634,0.928345 0.549962,1.918356 1.300781,2.578126 0.358674,-1.045661 0.966944,-2.015426 1.298828,-3.060547 -0.26462,-0.275077 -0.532743,-0.936773 -0.958436,-0.457464 -0.547058,0.313295 -1.094115,0.62659 -1.641173,0.939885 z" />
  <path
     id="Lt_Medial_Pterygoid_M2"
     style="fill:none;stroke:#000000;stroke-width:0.2;stroke-linecap:butt;stroke-linejoin:miter;stroke-miterlimit:4;stroke-dasharray:none;stroke-opacity:1"
     d="m -23.418618,11.787109 c 0.358886,1.087025 0.536114,2.310429 1.473294,3.087908 0.47048,0.831549 0.775509,0.565024 0.999063,-0.242245 0.47536,-1.057929 0.95072,-2.115858 1.42608,-3.173788 -0.428781,-0.342599 -0.805875,-1.04315 -1.264531,-1.178854 -0.877969,0.502326 -1.755938,1.004653 -2.633906,1.506979 z" />
  <path
     style="fill:none;stroke:#000000;stroke-width:0.2;stroke-linecap:butt;stroke-linejoin:miter;stroke-miterlimit:4;stroke-dasharray:none;stroke-opacity:1"
     d="m 58.449506,4.4045008 4.033952,-3.638459 2.76839,0.47458 0.71189,2.689299 -1.97743,1.977421 -2.8475,1.740138 v 0 l -1.547395,-2.105919 z"
     id="Rt_Submandibular_Gland" />
  <path
     style="fill:none;stroke:#000000;stroke-width:0.2;stroke-linecap:butt;stroke-linejoin:miter;stroke-miterlimit:4;stroke-dasharray:none;stroke-opacity:1"
     d="m 55.206537,7.8847718 3.242969,-3.480271 0.645597,-3.025801 -1.320874,-1.499184 -1.918423,1.598395 -2.222069,2.878587 -0.750274,2.477606 0.424744,1.604338 z"
     id="Rt_Ant_Digastric_M" />
  <path
     style="fill:none;stroke:#000000;stroke-width:0.2;stroke-linecap:butt;stroke-linejoin:miter;stroke-miterlimit:4;stroke-dasharray:none;stroke-opacity:1"
     d="m 56.788478,-3.0306172 0.727959,-2.842642 3.429323,0.839011 v 0 l 0.564438,1.862522 -4.72172,0.141109"
     id="Thyroid_cartilage_side2" />
  <circle
     id="path2568-4-1-4"
     style="fill:#000000;stroke:#000000;stroke-width:0.2;stroke-miterlimit:4;stroke-dasharray:none"
     cx="-72.650139"
     cy="-10.655875"
     r="0.021290544"
     transform="scale(-1)" />
  <path
     style="fill:none;stroke:#000000;stroke-width:0.2;stroke-linecap:butt;stroke-linejoin:miter;stroke-miterlimit:4;stroke-dasharray:none;stroke-opacity:1"
     d="m 73.567982,9.2981598 -1.959299,-1.382448 -1.803486,-1.95639 1.794385,-1.27051 3.955081,2.426851 z"
     id="Rt_Parotid_Gland" />
  <path
     style="fill:none;stroke:#000000;stroke-width:0.2;stroke-linecap:butt;stroke-linejoin:miter;stroke-miterlimit:4;stroke-dasharray:none;stroke-opacity:1"
     d="m 71.304137,13.668392 2.263845,-4.3702322 -1.959299,-1.382448 -1.803486,-1.95639 -1.70585,-1.13615 -2.135609,-0.893251 -1.97743,1.977421 -0.43776,3.658921 3.459879,1.9782792 z"
     id="Rt_Masseter_M" />
  <path
     style="fill:none;stroke:#000000;stroke-width:0.2;stroke-linecap:butt;stroke-linejoin:miter;stroke-miterlimit:4;stroke-dasharray:none;stroke-opacity:1"
     d="m 71.304137,13.668392 -0.95063,3.045177 -2.97991,1.648603 -3.21431,-1.848642 1.970661,-2.23597 0.878479,-2.733018 z"
     id="Rt_Lateral_Pterygoid_M" />
  <path
     style="fill:none;stroke:#000000;stroke-width:0.2;stroke-linecap:butt;stroke-linejoin:miter;stroke-miterlimit:4;stroke-dasharray:none;stroke-opacity:1"
     d="m 66.129948,14.27756 -1.970661,2.23597 -2.32409,-5.164209 1.713351,-1.7830582 3.459879,1.9782792 z"
     id="Rt_Medial_Pterygoid_M" />
  <path
     style="fill:none;stroke:#000000;stroke-width:0.2;stroke-linecap:butt;stroke-linejoin:miter;stroke-miterlimit:4;stroke-dasharray:none;stroke-opacity:1"
     d="m 77.116391,5.7491508 -4.068983,-6.536251 -4.631671,-7.622106 -2.600402,-7.6984718 -1.006738,-3.270159 2.9446,-3.45991 6.478115,0.58892 0.29447,7.43512 1.9876,7.5823408 3.687799,6.652759 z"
     id="Rt_Sternocleidomastoid_M" />
  <path
     style="fill:none;stroke:#000000;stroke-width:0.2;stroke-linecap:butt;stroke-linejoin:miter;stroke-miterlimit:4;stroke-dasharray:none;stroke-opacity:1"
     d="m 61.835197,11.349321 -10.846289,7.554101 -0.828242,-3.769572 -1.481,-1.164698 -0.207971,-2.859659 3.175484,-1.8800822 1.661028,-0.790969 1.89833,-0.55367 5.932271,-0.237292 2.8475,-1.740138 -0.43776,3.658921 -1.713351,1.7830582"
     id="Mandible_side2" />
  <path
     style="fill:none;stroke:#000000;stroke-width:0.2;stroke-linecap:butt;stroke-linejoin:miter;stroke-miterlimit:4;stroke-dasharray:none;stroke-opacity:1"
     d="m 52.36725,23.84315 -0.15199,-3.32278 -1.409772,0.296931 -0.0976,1.65934 1.659338,1.366509"
     id="Upper_Lip_side2" />
  <path
     style="fill:none;stroke:#000000;stroke-width:0.2;stroke-linecap:butt;stroke-linejoin:miter;stroke-miterlimit:4;stroke-dasharray:none;stroke-opacity:1"
     d="m 50.138471,19.682596 0.850437,-0.779174 1.226352,1.616948 -1.409772,0.296931 z"
     id="Lower_Lip_side2" />
  <path
     style="fill:none;stroke:#000000;stroke-width:0.2;stroke-linecap:butt;stroke-linejoin:miter;stroke-miterlimit:4;stroke-dasharray:none;stroke-opacity:1"
     d="m 52.36725,23.84315 8.974378,-0.986639 6.031969,-4.494339 -3.21431,-1.848642 -2.32409,-5.164209 -10.846289,7.554101 1.226352,1.616948 z"
     id="Extended_Oral_Cavity_side2" />
  <path
     style="fill:none;stroke:#000000;stroke-width:0.2;stroke-linecap:butt;stroke-linejoin:miter;stroke-miterlimit:4;stroke-dasharray:none;stroke-opacity:1"
     d="m 56.788478,-3.0306172 -1.576281,1.162451 7.138741,-0.193901 -0.84074,-1.109659 -1.59699,-0.13846 -3.12473,0.279569"
     id="Hyoid_bone_side2" />
  <path
     style="fill:none;stroke:#000000;stroke-width:0.2;stroke-linecap:butt;stroke-linejoin:miter;stroke-miterlimit:4;stroke-dasharray:none;stroke-opacity:1"
     d="m 61.234493,-15.16509 3.026035,-2.138778 0.548069,-2.073969 -3.717539,-1.028261 -3.954851,0.949161 -0.0306,3.19877 4.128883,1.093077"
     id="Esophagus_side2" />
  <path
     style="fill:none;stroke:#000000;stroke-width:0.2;stroke-linecap:butt;stroke-linejoin:miter;stroke-miterlimit:4;stroke-dasharray:none;stroke-opacity:1"
     d="m 83.864551,6.6556418 -2.68928,-2.451999 2.45198,-3.63846 2.847501,0.949159 0.0791,3.163878 z"
     id="Brainstem_side2" />
  <path
     style="fill:none;stroke:#000000;stroke-width:0.2;stroke-linecap:butt;stroke-linejoin:miter;stroke-miterlimit:4;stroke-dasharray:none;stroke-opacity:1"
     d="m 82.235271,-5.9272962 -3.51203,1.50937 -1.81921,-5.7740798 -1.344649,-7.593312 0.31637,-3.16388 3.724099,0.4783 1.85456,12.1033918 z"
     id="Spinal_Cord_side2" />
  <path
     style="fill:none;stroke:#000000;stroke-width:0.264583px;stroke-linecap:butt;stroke-linejoin:miter;stroke-opacity:1"
     d="m 67.90883,-2.1193262 v 0 l 0.506907,-6.289883 -4.976309,0.953572 -3.15978,0.613371 1.23055,3.67054 0.84074,1.109659 z"
     id="Supraglottic_Larynx_side2" />
  <path
     style="fill:none;stroke:#000000;stroke-width:0.264583px;stroke-linecap:butt;stroke-linejoin:miter;stroke-opacity:1"
     d="m 68.415737,-8.4092092 -2.600402,-7.6984688 -4.580842,0.942588 1.155125,2.197657 0.75874,1.243367 0.29106,4.2684308 z"
     id="Larynx_side2" />
  <path
     style="fill:none;stroke:#000000;stroke-width:0.264583px;stroke-linecap:butt;stroke-linejoin:miter;stroke-opacity:1"
     d="m 65.251848,1.2406218 2.8473,-0.79066 3.500434,4.23885 -1.794385,1.27051 -1.70585,-1.13615 -2.135609,-0.893251 -0.71189,-2.689299"
     id="MPC_side2" />
  <path
     style="fill:none;stroke:#000000;stroke-width:0.264583px;stroke-linecap:butt;stroke-linejoin:miter;stroke-opacity:1"
     d="m 61.138808,7.6474798 -5.932271,0.237292 3.242969,-3.480271 1.141907,1.13706 1.547395,2.105919"
     id="Mylogeniohyoid_M_side2" />
  <path
     style="fill:none;stroke:#000000;stroke-width:0.2;stroke-linecap:butt;stroke-linejoin:miter;stroke-miterlimit:4;stroke-dasharray:none;stroke-opacity:1"
     d="m 57.421277,-7.7764362 0.547979,-3.1716498 1.565595,-0.306488 3.613507,-0.469492 0.29106,2.4080798 v 1.86035 l -3.15977,0.61337 -2.858371,-0.93417"
     id="Rt_thyroid_lobe" />
  <path
     style="fill:none;stroke:#000000;stroke-width:0.264583px;stroke-linecap:butt;stroke-linejoin:miter;stroke-opacity:1"
     d="m 67.90883,-2.1193262 0.190318,2.569288 3.500434,4.23885 1.447826,-5.475911 -4.631671,-7.622109 z"
     id="IPC_side2" />
  <path
     style="fill:none;stroke:#000000;stroke-width:0.264583px;stroke-linecap:butt;stroke-linejoin:miter;stroke-opacity:1"
     d="m 57.421277,-7.7764362 0.09516,1.903177 3.429323,0.839011 -0.666112,-1.808018 z"
     id="Glottic_Area_side2" />
  <path
     id="Rt_Lateral_Pterygoid_M2"
     style="fill:none;stroke:#000000;stroke-width:0.2;stroke-linecap:butt;stroke-linejoin:miter;stroke-miterlimit:4;stroke-dasharray:none;stroke-opacity:1"
     d="m 70.663039,13.939452 c -0.32083,0.818539 -0.394327,1.792317 -0.90587,2.497614 -0.793745,0.438946 -1.587492,0.877893 -2.381239,1.316839 -0.798177,-0.458332 -1.596354,-0.916665 -2.394531,-1.375 0.773325,-0.918048 1.796047,-1.729981 1.990013,-2.989006 0.189387,-0.58846 0.256717,-1.46535 0.98137,-0.788924 0.903419,0.446159 1.806838,0.892318 2.710257,1.338477 z" />
  <path
     id="Rt_Lateral_Pterygoid_M3"
     style="fill:none;stroke:#000000;stroke-width:0.2;stroke-linecap:butt;stroke-linejoin:miter;stroke-miterlimit:4;stroke-dasharray:none;stroke-opacity:1"
     d="m 67.729446,13.058593 c 0.734883,0.427937 1.523793,0.753245 2.277343,1.146485 -0.234841,0.824447 -0.314706,1.912511 -1.292539,2.202653 -0.53236,0.143558 -1.069912,0.922655 -1.598391,0.591164 -0.276141,-0.337288 -1.572796,-0.516884 -1.099624,-0.96996 0.809602,-0.834577 1.444809,-1.867923 1.615554,-3.030889 l 0.08499,0.05269 z" />
  <path
     id="Rt_Masseter_M3"
     style="fill:none;stroke:#000000;stroke-width:0.2;stroke-linecap:butt;stroke-linejoin:miter;stroke-miterlimit:4;stroke-dasharray:none;stroke-opacity:1"
     d="m 66.446243,5.8046868 c 1.64363,0.658114 2.917034,1.928661 4.07583,3.22403 0.311606,0.285305 0.661598,0.523589 1.002295,0.772064 -0.303386,0.5852882 -0.606772,1.1705732 -0.910157,1.7558602 -1.807986,-0.896093 -3.603229,-1.8205582 -5.347656,-2.8359362 0.135604,-0.953064 -0.01793,-2.164022 0.911785,-2.764775 0.07342,-0.06403 0.154155,-0.181964 0.267903,-0.151243 z" />
  <path
     id="Rt_Masseter_M2"
     style="fill:none;stroke:#000000;stroke-width:0.2;stroke-linecap:butt;stroke-linejoin:miter;stroke-miterlimit:4;stroke-dasharray:none;stroke-opacity:1"
     d="m 66.325149,4.9316408 c 1.467277,0.536845 2.829251,1.381114 3.854077,2.579272 0.617496,0.858369 1.511041,1.444861 2.366626,2.039869 -0.529297,1.0208342 -1.058594,2.0416652 -1.58789,3.0624992 -2.223808,-1.088573 -4.409091,-2.190546 -6.535156,-3.4628902 0.06651,-0.932987 0.194234,-1.877783 0.337889,-2.792969 0.325896,-0.601077 0.952424,-0.989652 1.406251,-1.458984 l 0.09787,0.02053 z" />
  <path
     id="Rt_Ant_Digastric_M3"
     style="fill:none;stroke:#000000;stroke-width:0.2;stroke-linecap:butt;stroke-linejoin:miter;stroke-miterlimit:4;stroke-dasharray:none;stroke-opacity:1"
     d="m 57.766556,1.4296878 c 0.340383,0.456244 -0.07053,1.045501 -0.07655,1.565213 -0.08467,0.864363 -0.68807,1.486395 -1.284112,2.047018 -0.759345,0.773123 -1.345229,1.703499 -2.365903,2.104565 -0.0046,-1.640189 1.007085,-3.049799 2.050784,-4.232421 0.47363,-0.577297 0.979514,-1.130442 1.564452,-1.597656 l 0.07009,0.07132 z" />
  <path
     id="Rt_Ant_Digastric_M2"
     style="fill:none;stroke:#000000;stroke-width:0.2;stroke-linecap:butt;stroke-linejoin:miter;stroke-miterlimit:4;stroke-dasharray:none;stroke-opacity:1"
     d="m 57.690385,0.6171878 c 0.316957,0.275021 0.676555,0.655941 0.810506,1.013672 -0.260205,0.897509 -0.242671,1.928147 -0.730785,2.725717 -0.988382,1.012754 -1.886577,2.14162 -2.94691,3.067251 -0.396407,0.05902 -0.735407,0.323728 -1.132811,0.367189 -0.305909,-0.626803 -0.248838,-1.317583 0.03854,-1.930736 0.184534,-0.878975 0.587819,-1.68262 1.209297,-2.331133 0.73339,-1.01601 1.555101,-1.984122 2.535571,-2.755952 0.05226,-0.05465 0.12143,-0.193304 0.216592,-0.156008 z" />
  <path
     id="Rt_Submandibular_Gland3"
     style="fill:none;stroke:#000000;stroke-width:0.2;stroke-linecap:butt;stroke-linejoin:miter;stroke-miterlimit:4;stroke-dasharray:none;stroke-opacity:1"
     d="m 64.399367,2.1699218 c 0.02113,0.575074 0.671357,1.314243 0.106363,1.736432 -0.838373,0.936763 -1.892473,1.657689 -2.963155,2.278544 -0.332516,0.168828 -0.456917,-0.628483 -0.750568,-0.783558 -0.179346,-0.358889 -0.734821,-0.717648 -0.724645,-1.026925 0.914706,-0.825325 1.829411,-1.650651 2.744115,-2.475977 0.529298,0.0905 1.058594,0.180989 1.58789,0.271484 z" />
  <path
     id="Rt_Submandibular_Gland2"
     style="fill:none;stroke:#000000;stroke-width:0.2;stroke-linecap:butt;stroke-linejoin:miter;stroke-miterlimit:4;stroke-dasharray:none;stroke-opacity:1"
     d="m 64.82515,1.7050778 c 0.182941,0.688802 0.365885,1.377605 0.548828,2.066407 -0.979691,1.020676 -1.977485,2.067957 -3.289063,2.654298 -0.280357,0.130537 -0.791382,0.829643 -0.998333,0.253193 -0.578304,-0.785702 -1.138526,-1.596361 -1.857137,-2.26296 1.139324,-1.027995 2.278647,-2.05599 3.41797,-3.083984 0.725912,0.124348 1.451823,0.248698 2.177735,0.373046 z" />
  <path
     id="Rt_Parotid_Gland3"
     style="fill:none;stroke:#000000;stroke-width:0.2;stroke-linecap:butt;stroke-linejoin:miter;stroke-miterlimit:4;stroke-dasharray:none;stroke-opacity:1"
     d="m 72.145462,6.2597648 c 0.584341,0.357738 1.167057,0.718116 1.749999,1.078127 -0.223036,0.277582 -0.46158,0.846947 -0.801314,0.342513 -0.628391,-0.451863 -1.193446,-0.985657 -1.726029,-1.54564 0.269584,-0.361413 0.469478,-0.01019 0.777344,0.125 z" />
  <path
     id="Rt_Parotid_Gland2"
     style="fill:none;stroke:#000000;stroke-width:0.2;stroke-linecap:butt;stroke-linejoin:miter;stroke-miterlimit:4;stroke-dasharray:none;stroke-opacity:1"
     d="m 71.692336,5.3769528 c 1.031121,0.58106 2.019666,1.253133 3.042969,1.85547 -0.414714,0.455078 -0.829427,0.910156 -1.244141,1.365234 -1.022695,-0.630483 -1.916968,-1.441341 -2.72233,-2.317493 -0.507725,-0.338151 0.413756,-0.524483 0.538737,-0.786024 0.0937,-0.114914 0.240724,-0.175959 0.384765,-0.117187 z" />
  <path
     id="Rt_thyroid_lobe3"
     style="fill:none;stroke:#000000;stroke-width:0.2;stroke-linecap:butt;stroke-linejoin:miter;stroke-miterlimit:4;stroke-dasharray:none;stroke-opacity:1"
     d="m 62.377884,-9.3203122 c -0.1797,0.355224 0.346775,1.058 -0.271484,1.033203 -0.918869,0.23944 -1.954282,0.516555 -2.818361,-0.0332 -0.686646,0.05325 -0.770345,-0.349857 -0.541319,-0.932815 -0.06986,-0.713603 0.339665,-0.9599938 0.999594,-0.9472238 0.825262,-0.13106 1.654933,-0.230311 2.483131,-0.340664 0.04948,0.406901 0.09896,0.8138018 0.148439,1.2207028 z" />
  <path
     id="Rt_thyroid_lobe2"
     style="fill:none;stroke:#000000;stroke-width:0.2;stroke-linecap:butt;stroke-linejoin:miter;stroke-miterlimit:4;stroke-dasharray:none;stroke-opacity:1"
     d="m 62.911086,-9.3007812 c -0.106078,0.46606 0.145251,0.97449 -0.03711,1.416016 -1.130618,0.114555 -2.302972,0.758162 -3.402856,0.219797 -0.405937,-0.293894 -1.53747,-0.151417 -1.40143,-0.771258 0.119007,-0.687273 0.238014,-1.374547 0.357019,-2.0618198 1.38018,-0.299092 2.840271,-0.440439 4.26172,-0.634766 0.07422,0.610678 0.148437,1.2213538 0.222657,1.8320308 z" />
  <path
     id="Rt_Sternocleidomastoid_M3"
     style="fill:none;stroke:#000000;stroke-width:0.2;stroke-linecap:butt;stroke-linejoin:miter;stroke-miterlimit:4;stroke-dasharray:none;stroke-opacity:1"
     d="m 72.711868,-20.794922 c 0.129522,3.077564 0.02068,6.229633 1.019584,9.187198 0.633062,2.6463678 1.308918,5.4186798 2.799567,7.6885358 0.626039,1.130615 1.252076,2.26123 1.878114,3.391845 -0.485676,0.998697 -0.971354,1.997396 -1.457031,2.996093 -2.464129,-4.034557 -5.05737,-7.967962 -7.28582,-12.133833 -1.046416,-3.1091958 -2.108271,-6.2135418 -3.081368,-9.3466358 0.615886,-0.724609 1.231772,-1.449219 1.847656,-2.173828 1.426434,0.130208 2.852866,0.260417 4.279298,0.390625 z" />
  <path
     id="Rt_Sternocleidomastoid_M2"
     style="fill:none;stroke:#000000;stroke-width:0.2;stroke-linecap:butt;stroke-linejoin:miter;stroke-miterlimit:4;stroke-dasharray:none;stroke-opacity:1"
     d="m 73.46968,-21.521484 c 0.148791,2.46253 0.06755,4.951386 0.416544,7.394478 0.725691,2.538395 1.213784,5.1605068 2.129594,7.6339848 1.0966,1.979445 2.1932,3.958889 3.289799,5.938334 -0.757161,1.554687 -1.514323,3.109375 -2.271484,4.664061 -2.698673,-4.36263 -5.460126,-8.700258 -7.996842,-13.151381 -1.134094,-3.3773268 -2.308795,-6.7417398 -3.343001,-10.1513518 0.799479,-0.939454 1.598957,-1.878907 2.398437,-2.81836 1.792317,0.163412 3.584636,0.326823 5.376953,0.490235 z" />
  <path
     id="Rt_Medial_Pterygoid_M3"
     style="fill:none;stroke:#000000;stroke-width:0.2;stroke-linecap:butt;stroke-linejoin:miter;stroke-miterlimit:4;stroke-dasharray:none;stroke-opacity:1"
     d="m 65.739212,12.039061 c -0.260635,0.928346 -0.549962,1.918356 -1.300781,2.578127 -0.358674,-1.04566 -0.966944,-2.015427 -1.298828,-3.060547 0.264619,-0.275077 0.532743,-0.936773 0.958436,-0.457465 0.547058,0.313296 1.094115,0.626592 1.641173,0.939885 z" />
  <path
     id="Rt_Medial_Pterygoid_M2"
     style="fill:none;stroke:#000000;stroke-width:0.2;stroke-linecap:butt;stroke-linejoin:miter;stroke-miterlimit:4;stroke-dasharray:none;stroke-opacity:1"
     d="m 66.366165,11.787109 c -0.358887,1.087025 -0.536114,2.310429 -1.473295,3.087907 -0.47048,0.831551 -0.775508,0.565026 -0.999063,-0.242244 -0.47536,-1.057929 -0.950719,-2.115858 -1.426079,-3.173789 0.42878,-0.342598 0.805875,-1.043149 1.264531,-1.178853 0.877969,0.502327 1.755937,1.004654 2.633906,1.506979 z" />
</svg>
